<svg xmlns="http://www.w3.org/2000/svg" xmlns:xlink="http://www.w3.org/1999/xlink" width="500" zoomAndPan="magnify" viewBox="0 0 375 374.999991" height="500" preserveAspectRatio="xMidYMid meet" version="1.2"><defs><clipPath id="0ab34ead48"><path d="M 160 287 L 215 287 L 215 300.367188 L 160 300.367188 Z M 160 287 "/></clipPath><clipPath id="43bb2722d7"><path d="M 144.789062 102.074219 L 230.289062 102.074219 L 230.289062 187.574219 L 144.789062 187.574219 Z M 144.789062 102.074219 "/></clipPath></defs><g id="ff1f993ab7"><path style=" stroke:none;fill-rule:nonzero;fill:#6e5227;fill-opacity:1;" d="M 240.320312 116.128906 C 217.421875 74.472656 157.5625 74.472656 134.664062 116.128906 C 124.722656 134.214844 124.722656 156.125 134.664062 174.207031 L 187.492188 270.316406 L 240.320312 174.207031 C 250.261719 156.125 250.261719 134.214844 240.320312 116.128906 Z M 187.492188 184.609375 C 166.15625 184.609375 148.863281 167.3125 148.863281 145.976562 C 148.863281 124.640625 166.15625 107.347656 187.492188 107.347656 C 208.828125 107.347656 226.121094 124.644531 226.121094 145.976562 C 226.121094 167.3125 208.828125 184.609375 187.492188 184.609375 Z M 187.492188 184.609375 "/><g clip-rule="nonzero" clip-path="url(#0ab34ead48)"><path style=" stroke:none;fill-rule:nonzero;fill:#6e5227;fill-opacity:1;" d="M 214.515625 293.746094 C 214.515625 293.957031 214.472656 294.171875 214.386719 294.382812 C 214.300781 294.597656 214.171875 294.808594 213.996094 295.015625 C 213.824219 295.226562 213.609375 295.433594 213.351562 295.636719 C 213.097656 295.839844 212.796875 296.042969 212.460938 296.238281 C 212.121094 296.4375 211.742188 296.628906 211.324219 296.816406 C 210.910156 297.003906 210.453125 297.1875 209.960938 297.367188 C 209.46875 297.542969 208.945312 297.714844 208.382812 297.878906 C 207.820312 298.046875 207.226562 298.203125 206.601562 298.355469 C 205.976562 298.503906 205.320312 298.648438 204.636719 298.785156 C 203.953125 298.917969 203.242188 299.046875 202.507812 299.164062 C 201.769531 299.28125 201.011719 299.394531 200.230469 299.492188 C 199.449219 299.59375 198.652344 299.683594 197.835938 299.765625 C 197.015625 299.847656 196.183594 299.921875 195.335938 299.984375 C 194.488281 300.042969 193.632812 300.097656 192.765625 300.136719 C 191.894531 300.179688 191.023438 300.210938 190.140625 300.230469 C 189.261719 300.253906 188.378906 300.261719 187.492188 300.261719 C 186.605469 300.261719 185.722656 300.253906 184.84375 300.230469 C 183.960938 300.210938 183.089844 300.179688 182.21875 300.136719 C 181.351562 300.097656 180.496094 300.042969 179.648438 299.984375 C 178.800781 299.921875 177.96875 299.847656 177.148438 299.765625 C 176.332031 299.683594 175.535156 299.59375 174.753906 299.492188 C 173.972656 299.394531 173.214844 299.28125 172.476562 299.164062 C 171.742188 299.046875 171.03125 298.917969 170.347656 298.785156 C 169.664062 298.648438 169.007812 298.503906 168.382812 298.355469 C 167.757812 298.203125 167.164062 298.046875 166.601562 297.878906 C 166.039062 297.714844 165.515625 297.542969 165.023438 297.367188 C 164.53125 297.1875 164.074219 297.003906 163.660156 296.816406 C 163.242188 296.628906 162.863281 296.4375 162.523438 296.238281 C 162.1875 296.042969 161.886719 295.839844 161.632812 295.636719 C 161.375 295.433594 161.160156 295.226562 160.988281 295.015625 C 160.8125 294.808594 160.683594 294.597656 160.597656 294.382812 C 160.511719 294.171875 160.46875 293.957031 160.46875 293.746094 C 160.46875 293.53125 160.511719 293.316406 160.597656 293.105469 C 160.683594 292.894531 160.8125 292.683594 160.988281 292.472656 C 161.160156 292.261719 161.375 292.058594 161.632812 291.851562 C 161.886719 291.648438 162.1875 291.449219 162.523438 291.25 C 162.863281 291.054688 163.242188 290.859375 163.660156 290.671875 C 164.074219 290.484375 164.53125 290.300781 165.023438 290.125 C 165.515625 289.945312 166.039062 289.773438 166.601562 289.609375 C 167.164062 289.445312 167.757812 289.285156 168.382812 289.136719 C 169.007812 288.984375 169.664062 288.839844 170.347656 288.707031 C 171.03125 288.570312 171.742188 288.445312 172.476562 288.324219 C 173.214844 288.207031 173.972656 288.097656 174.753906 287.996094 C 175.535156 287.894531 176.332031 287.804688 177.148438 287.722656 C 177.96875 287.640625 178.800781 287.570312 179.648438 287.507812 C 180.496094 287.445312 181.351562 287.394531 182.21875 287.351562 C 183.089844 287.308594 183.960938 287.277344 184.84375 287.257812 C 185.722656 287.238281 186.605469 287.226562 187.492188 287.226562 C 188.378906 287.226562 189.261719 287.238281 190.140625 287.257812 C 191.023438 287.277344 191.894531 287.308594 192.765625 287.351562 C 193.632812 287.394531 194.488281 287.445312 195.335938 287.507812 C 196.183594 287.570312 197.015625 287.640625 197.835938 287.722656 C 198.652344 287.804688 199.449219 287.894531 200.230469 287.996094 C 201.011719 288.097656 201.769531 288.207031 202.507812 288.324219 C 203.242188 288.445312 203.953125 288.570312 204.636719 288.707031 C 205.320312 288.839844 205.976562 288.984375 206.601562 289.136719 C 207.226562 289.285156 207.820312 289.445312 208.382812 289.609375 C 208.945312 289.773438 209.46875 289.945312 209.960938 290.125 C 210.453125 290.300781 210.910156 290.484375 211.324219 290.671875 C 211.742188 290.859375 212.121094 291.054688 212.460938 291.25 C 212.796875 291.449219 213.097656 291.648438 213.351562 291.851562 C 213.609375 292.058594 213.824219 292.261719 213.996094 292.472656 C 214.171875 292.683594 214.300781 292.894531 214.386719 293.105469 C 214.472656 293.316406 214.515625 293.53125 214.515625 293.746094 Z M 214.515625 293.746094 "/></g><g clip-rule="nonzero" clip-path="url(#43bb2722d7)"><path style=" stroke:none;fill-rule:nonzero;fill:#6e5227;fill-opacity:1;" d="M 208.617188 159.070312 C 203.835938 158.761719 200.355469 155.320312 200.84375 151.382812 C 201.328125 147.441406 205.597656 144.5 210.378906 144.804688 C 215.15625 145.113281 218.636719 148.554688 218.152344 152.492188 C 217.664062 156.429688 213.394531 159.375 208.617188 159.070312 Z M 198.167969 138.371094 C 195.988281 134.597656 198.03125 129.339844 202.734375 126.625 C 207.433594 123.90625 213.011719 124.765625 215.191406 128.539062 C 217.371094 132.3125 215.328125 137.570312 210.625 140.285156 C 205.925781 143.003906 200.34375 142.144531 198.167969 138.371094 Z M 189.5625 174.53125 C 186.761719 174.835938 184.105469 173.996094 182.039062 172.398438 C 181.714844 172.242188 181.398438 172.066406 181.085938 171.867188 C 180.015625 171.195312 179.121094 170.351562 178.386719 169.40625 L 178.382812 169.417969 C 175.96875 166.292969 172.523438 164.128906 168.664062 163.300781 L 168.667969 163.292969 C 167.5 163.042969 166.351562 162.597656 165.28125 161.925781 C 165.164062 161.851562 165.058594 161.765625 164.949219 161.691406 C 164.824219 161.621094 164.699219 161.558594 164.578125 161.484375 C 164.382812 161.359375 164.199219 161.21875 164.011719 161.085938 C 161.855469 159.890625 160.101562 157.945312 159.214844 155.4375 C 157.285156 149.984375 160.140625 144.003906 165.59375 142.074219 C 166.785156 141.652344 168.003906 141.472656 169.199219 141.488281 L 169.195312 141.476562 C 172.496094 141.511719 175.707031 140.558594 178.453125 138.78125 C 180.128906 136.8125 182.523438 135.445312 185.300781 135.144531 C 187.75 134.878906 190.09375 135.492188 192.027344 136.714844 C 192.0625 136.738281 192.097656 136.757812 192.132812 136.777344 C 192.167969 136.800781 192.199219 136.824219 192.234375 136.847656 C 194.175781 138.058594 195.742188 139.90625 196.5625 142.230469 C 197.492188 144.863281 197.300781 147.613281 196.246094 149.976562 C 195.832031 153.222656 196.367188 156.53125 197.824219 159.488281 L 197.816406 159.488281 C 198.34375 160.5625 198.707031 161.738281 198.84375 162.996094 C 199.46875 168.742188 195.3125 173.910156 189.5625 174.53125 Z M 168.285156 119.929688 C 171.886719 118.6875 175.691406 121.503906 176.777344 126.222656 C 177.867188 130.941406 175.828125 135.769531 172.226562 137.015625 C 168.621094 138.253906 164.820312 135.4375 163.734375 130.722656 C 162.644531 126.003906 164.683594 121.171875 168.285156 119.929688 Z M 180.351562 120.140625 C 181.96875 114.957031 186.648438 111.804688 190.808594 113.101562 C 194.96875 114.394531 197.03125 119.648438 195.417969 124.832031 C 193.800781 130.015625 189.121094 133.167969 184.960938 131.875 C 180.800781 130.578125 178.738281 125.324219 180.351562 120.140625 Z M 187.496094 102.074219 C 163.910156 102.074219 144.789062 121.199219 144.789062 144.785156 C 144.789062 168.371094 163.910156 187.492188 187.496094 187.492188 C 211.085938 187.492188 230.207031 168.371094 230.207031 144.785156 C 230.207031 121.199219 211.085938 102.074219 187.496094 102.074219 "/></g><path style=" stroke:none;fill-rule:nonzero;fill:#f3e8d7;fill-opacity:1;" d="M 236.785156 116.320312 C 215.40625 77.425781 159.523438 77.425781 138.148438 116.320312 C 128.867188 133.199219 128.867188 153.65625 138.148438 170.539062 L 187.464844 260.257812 L 236.785156 170.539062 C 246.0625 153.65625 246.0625 133.199219 236.785156 116.320312 Z M 187.464844 180.246094 C 167.546875 180.246094 151.402344 164.101562 151.402344 144.183594 C 151.402344 124.265625 167.546875 108.121094 187.464844 108.121094 C 207.382812 108.121094 223.527344 124.265625 223.527344 144.183594 C 223.527344 164.101562 207.382812 180.246094 187.464844 180.246094 Z M 187.464844 180.246094 "/></g></svg>