<svg xmlns="http://www.w3.org/2000/svg" xmlns:xlink="http://www.w3.org/1999/xlink" width="500" zoomAndPan="magnify" viewBox="0 0 375 374.999991" height="500" preserveAspectRatio="xMidYMid meet" version="1.2"><defs><clipPath id="cf8d08482d"><path d="M 205.921875 129.941406 L 248.222656 129.941406 L 248.222656 180.667969 L 205.921875 180.667969 Z M 205.921875 129.941406 "/></clipPath><clipPath id="4d4f48e6a0"><path d="M 223.171875 129.941406 L 230.972656 129.941406 C 235.546875 129.941406 239.9375 131.757812 243.171875 134.992188 C 246.40625 138.226562 248.222656 142.613281 248.222656 147.191406 L 248.222656 163.390625 C 248.222656 167.964844 246.40625 172.351562 243.171875 175.585938 C 239.9375 178.820312 235.546875 180.640625 230.972656 180.640625 L 223.171875 180.640625 C 218.597656 180.640625 214.210938 178.820312 210.976562 175.585938 C 207.742188 172.351562 205.921875 167.964844 205.921875 163.390625 L 205.921875 147.191406 C 205.921875 142.613281 207.742188 138.226562 210.976562 134.992188 C 214.210938 131.757812 218.597656 129.941406 223.171875 129.941406 Z M 223.171875 129.941406 "/></clipPath><clipPath id="cc48bc029b"><path d="M 209 240 L 242 240 L 242 247.925781 L 209 247.925781 Z M 209 240 "/></clipPath><clipPath id="4ac165530d"><path d="M 200.03125 129.710938 L 250.933594 129.710938 L 250.933594 180.617188 L 200.03125 180.617188 Z M 200.03125 129.710938 "/></clipPath><clipPath id="54216b4228"><path d="M 81.511719 233.394531 L 103.261719 233.394531 L 103.261719 252.144531 L 81.511719 252.144531 Z M 81.511719 233.394531 "/></clipPath></defs><g id="1c00ee46db"><g style="fill:#6e5227;fill-opacity:1;"><g transform="translate(54.137891, 192.717433)"><path style="stroke:none" d="M 8.839844 8.574219 C 5.601562 7.550781 3.222656 5.847656 1.710938 3.460938 C 0.355469 1.324219 -0.441406 -1.074219 -0.683594 -3.738281 C -0.898438 -6.070312 -0.863281 -8.460938 -0.582031 -10.914062 C -0.332031 -13.105469 -0.113281 -15.136719 0.0742188 -17.011719 C 0.585938 -21.886719 1.226562 -26.703125 1.996094 -31.46875 C 2.78125 -36.347656 3.925781 -41.144531 5.433594 -45.859375 C 6.703125 -49.800781 8.339844 -53.609375 10.339844 -57.277344 C 12.40625 -61.066406 14.925781 -64.410156 17.898438 -67.316406 C 20.964844 -70.3125 24.480469 -72.578125 28.445312 -74.113281 C 32.519531 -75.691406 37.066406 -76.15625 42.09375 -75.511719 C 47.21875 -74.851562 51.507812 -73.058594 54.953125 -70.136719 C 58.246094 -67.347656 60.882812 -63.910156 62.875 -59.824219 C 64.765625 -55.9375 66.183594 -51.835938 67.128906 -47.515625 C 68.042969 -43.34375 68.695312 -39.328125 69.085938 -35.46875 L 69.890625 -27.667969 C 70.175781 -24.84375 70.445312 -22.003906 70.699219 -19.148438 C 70.960938 -16.203125 71.09375 -13.480469 71.09375 -10.976562 C 71.09375 -7.710938 70.691406 -4.773438 69.894531 -2.15625 C 68.941406 0.957031 66.835938 3.574219 63.574219 5.695312 L 63.472656 5.761719 L 63.367188 5.820312 C 61.398438 6.921875 59.304688 7.632812 57.09375 7.949219 C 54.820312 8.273438 52.652344 8.144531 50.585938 7.566406 C 48.265625 6.917969 46.390625 5.710938 44.957031 3.945312 C 43.414062 2.042969 42.738281 -0.359375 42.925781 -3.261719 C 43.058594 -4.949219 43.023438 -6.308594 42.820312 -7.335938 C 42.6875 -8 42.519531 -8.4375 42.316406 -8.652344 C 42.109375 -8.867188 41.707031 -9.046875 41.101562 -9.195312 C 40.148438 -9.425781 38.90625 -9.503906 37.363281 -9.429688 L 37.324219 -9.425781 L 37.285156 -9.425781 C 35.328125 -9.371094 33.808594 -9.183594 32.726562 -8.863281 C 32.332031 -8.746094 32.058594 -8.535156 31.902344 -8.230469 C 31.535156 -7.519531 31.355469 -6.164062 31.355469 -4.164062 L 31.355469 -3.992188 L 31.339844 -3.820312 C 30.941406 0.402344 29.589844 3.644531 27.285156 5.90625 C 24.980469 8.167969 22.09375 9.425781 18.621094 9.679688 C 15.621094 9.898438 12.410156 9.542969 8.984375 8.617188 L 8.910156 8.597656 Z M 11.027344 1.644531 L 9.933594 5.109375 L 10.882812 1.601562 C 13.511719 2.3125 15.914062 2.589844 18.089844 2.429688 C 19.789062 2.308594 21.160156 1.734375 22.195312 0.71875 C 23.234375 -0.300781 23.871094 -2.042969 24.105469 -4.503906 L 27.722656 -4.164062 L 24.089844 -4.164062 C 24.089844 -7.332031 24.539062 -9.792969 25.433594 -11.546875 C 26.539062 -13.699219 28.28125 -15.128906 30.664062 -15.832031 C 32.355469 -16.332031 34.496094 -16.617188 37.082031 -16.6875 L 37.183594 -13.058594 L 37 -16.683594 C 41.890625 -16.929688 45.414062 -15.925781 47.566406 -13.675781 C 49.703125 -11.441406 50.574219 -7.8125 50.175781 -2.792969 C 50.109375 -1.785156 50.253906 -1.0625 50.601562 -0.632812 C 51.0625 -0.0664062 51.710938 0.335938 52.542969 0.570312 C 53.628906 0.875 54.804688 0.9375 56.066406 0.753906 C 57.382812 0.566406 58.636719 0.140625 59.816406 -0.519531 L 61.59375 2.648438 L 59.613281 -0.398438 C 61.398438 -1.558594 62.507812 -2.851562 62.945312 -4.277344 C 63.53125 -6.203125 63.824219 -8.433594 63.824219 -10.976562 C 63.824219 -13.265625 63.703125 -15.773438 63.460938 -18.507812 C 63.210938 -21.328125 62.945312 -24.136719 62.664062 -26.921875 L 61.859375 -34.734375 C 61.492188 -38.316406 60.882812 -42.0625 60.03125 -45.960938 C 59.210938 -49.714844 57.980469 -53.277344 56.339844 -56.644531 C 54.796875 -59.8125 52.769531 -62.460938 50.253906 -64.59375 C 47.902344 -66.589844 44.871094 -67.824219 41.167969 -68.300781 C 37.363281 -68.792969 33.996094 -68.46875 31.070312 -67.335938 C 28.03125 -66.160156 25.332031 -64.417969 22.976562 -62.117188 C 20.523438 -59.722656 18.4375 -56.949219 16.71875 -53.796875 C 14.9375 -50.53125 13.480469 -47.144531 12.355469 -43.648438 C 10.960938 -39.277344 9.898438 -34.832031 9.167969 -30.3125 C 8.421875 -25.679688 7.800781 -21.003906 7.304688 -16.289062 C 7.113281 -14.382812 6.890625 -12.3125 6.636719 -10.089844 C 6.414062 -8.128906 6.382812 -6.230469 6.550781 -4.398438 C 6.6875 -2.898438 7.117188 -1.578125 7.847656 -0.433594 C 8.414062 0.460938 9.472656 1.152344 11.027344 1.644531 Z M 32.933594 -31.054688 C 33.003906 -31.59375 32.859375 -32.078125 32.5 -32.507812 C 32.253906 -32.800781 31.941406 -33.023438 31.558594 -33.171875 C 31.195312 -33.308594 30.839844 -33.359375 30.488281 -33.3125 C 32.511719 -33.523438 34.515625 -33.613281 36.488281 -33.578125 C 38.296875 -33.546875 40.074219 -33.53125 41.820312 -33.53125 L 45.128906 -33.53125 C 44.570312 -33.53125 44.074219 -33.320312 43.648438 -32.894531 C 43.363281 -32.605469 43.160156 -32.265625 43.039062 -31.867188 C 42.9375 -31.53125 42.910156 -31.210938 42.953125 -30.898438 C 42.75 -32.511719 42.570312 -34.371094 42.40625 -36.480469 C 42.261719 -38.351562 41.988281 -40.179688 41.585938 -41.964844 C 41.253906 -43.429688 40.765625 -44.605469 40.117188 -45.492188 C 39.992188 -45.664062 39.867188 -45.78125 39.746094 -45.84375 C 39.609375 -45.910156 39.417969 -45.945312 39.171875 -45.945312 C 38.546875 -45.945312 38.027344 -45.714844 37.613281 -45.253906 C 36.78125 -44.332031 36.085938 -43.121094 35.519531 -41.625 C 34.867188 -39.886719 34.351562 -38.089844 33.980469 -36.234375 L 32.894531 -30.792969 L 29.332031 -31.507812 Z M 25.726562 -31.957031 L 25.742188 -32.089844 L 26.855469 -37.660156 C 27.304688 -39.902344 27.925781 -42.078125 28.722656 -44.1875 C 29.609375 -46.539062 30.769531 -48.515625 32.210938 -50.117188 C 34.070312 -52.179688 36.386719 -53.210938 39.171875 -53.210938 C 40.5625 -53.210938 41.835938 -52.921875 42.996094 -52.34375 C 44.167969 -51.757812 45.160156 -50.902344 45.980469 -49.785156 C 47.222656 -48.085938 48.121094 -46.011719 48.675781 -43.566406 C 49.15625 -41.4375 49.480469 -39.261719 49.652344 -37.035156 C 49.804688 -35.042969 49.96875 -33.339844 50.148438 -31.925781 C 50.382812 -30.285156 49.929688 -28.894531 48.789062 -27.753906 C 47.792969 -26.761719 46.574219 -26.265625 45.128906 -26.265625 L 41.820312 -26.265625 C 40.03125 -26.265625 38.214844 -26.28125 36.363281 -26.3125 C 34.679688 -26.339844 33.023438 -26.273438 31.390625 -26.101562 C 30.535156 -25.996094 29.71875 -26.089844 28.949219 -26.386719 C 28.15625 -26.691406 27.476562 -27.183594 26.917969 -27.855469 C 25.929688 -29.042969 25.53125 -30.410156 25.726562 -31.957031 Z M 25.726562 -31.957031 "/></g></g><g style="fill:#6e5227;fill-opacity:1;"><g transform="translate(124.420947, 192.717433)"><path style="stroke:none" d="M 49.261719 6.324219 C 45.730469 6.941406 42.664062 6.753906 40.066406 5.757812 C 37.25 4.675781 35.09375 2.726562 33.597656 -0.09375 L 36.804688 -1.796875 L 37.71875 1.71875 C 29.328125 3.902344 22.167969 4.164062 16.242188 2.503906 C 9.957031 0.75 5.359375 -2.800781 2.441406 -8.144531 C -0.355469 -13.261719 -1.332031 -19.605469 -0.488281 -27.175781 C 0.03125 -31.691406 1.433594 -35.460938 3.730469 -38.480469 C 5.941406 -41.394531 8.636719 -43.699219 11.816406 -45.402344 C 14.824219 -47.011719 17.945312 -48.167969 21.179688 -48.871094 C 24.304688 -49.550781 27.195312 -49.921875 29.851562 -49.992188 C 32.539062 -50.0625 34.675781 -49.945312 36.253906 -49.644531 L 35.574219 -46.078125 L 31.941406 -46.183594 C 32.007812 -48.339844 32.085938 -50.609375 32.179688 -52.988281 C 32.273438 -55.332031 32.351562 -57.789062 32.414062 -60.355469 C 32.472656 -61.65625 32.460938 -62.894531 32.375 -64.078125 C 32.257812 -65.742188 32.359375 -67.339844 32.679688 -68.871094 C 33.207031 -71.417969 34.292969 -73.488281 35.929688 -75.078125 C 37.441406 -76.550781 39.164062 -77.59375 41.097656 -78.207031 L 41.140625 -78.222656 L 41.1875 -78.234375 C 44 -79.050781 46.929688 -79.347656 49.980469 -79.125 C 53.390625 -78.878906 56.25 -77.773438 58.554688 -75.808594 C 60.554688 -74.125 61.640625 -71.433594 61.816406 -67.726562 C 61.945312 -65 61.980469 -61.707031 61.914062 -57.84375 C 61.851562 -53.9375 61.691406 -49.984375 61.433594 -45.988281 C 61.1875 -42.101562 61.03125 -38.265625 60.96875 -34.472656 L 57.335938 -34.535156 L 60.96875 -34.605469 C 61.09375 -28.148438 61.160156 -22.792969 61.160156 -18.542969 C 61.160156 -14.273438 61.109375 -10.882812 61.015625 -8.375 C 60.910156 -5.734375 60.71875 -3.660156 60.433594 -2.160156 L 56.863281 -2.839844 L 60.457031 -2.304688 C 60.03125 0.578125 58.582031 2.707031 56.121094 4.074219 C 54.355469 5.054688 52.078125 5.804688 49.289062 6.316406 Z M 47.972656 -0.828125 C 49.980469 -1.199219 51.519531 -1.683594 52.589844 -2.277344 C 52.964844 -2.484375 53.191406 -2.851562 53.269531 -3.371094 L 53.292969 -3.519531 C 53.511719 -4.664062 53.664062 -6.375 53.753906 -8.65625 C 53.84375 -11.066406 53.890625 -14.363281 53.890625 -18.542969 C 53.890625 -22.746094 53.828125 -28.050781 53.703125 -34.460938 L 53.703125 -34.59375 C 53.765625 -38.5 53.925781 -42.449219 54.183594 -46.449219 C 54.429688 -50.335938 54.585938 -54.171875 54.648438 -57.964844 C 54.710938 -61.671875 54.679688 -64.808594 54.558594 -67.382812 C 54.511719 -68.339844 54.386719 -69.105469 54.179688 -69.675781 C 54.070312 -69.980469 53.957031 -70.179688 53.84375 -70.277344 C 52.746094 -71.210938 51.28125 -71.746094 49.457031 -71.878906 C 47.273438 -72.035156 45.1875 -71.828125 43.207031 -71.253906 L 42.199219 -74.746094 L 43.300781 -71.28125 C 42.457031 -71.015625 41.6875 -70.542969 40.992188 -69.867188 C 40.421875 -69.3125 40.023438 -68.480469 39.792969 -67.375 C 39.609375 -66.507812 39.554688 -65.582031 39.625 -64.597656 C 39.730469 -63.128906 39.746094 -61.660156 39.679688 -60.179688 C 39.617188 -57.574219 39.535156 -55.082031 39.441406 -52.695312 C 39.347656 -50.34375 39.269531 -48.101562 39.207031 -45.96875 L 39.082031 -41.710938 L 34.894531 -42.507812 C 33.824219 -42.710938 32.207031 -42.785156 30.039062 -42.726562 C 27.839844 -42.671875 25.398438 -42.351562 22.722656 -41.769531 C 20.152344 -41.210938 17.65625 -40.285156 15.242188 -38.992188 C 12.996094 -37.792969 11.089844 -36.15625 9.515625 -34.085938 C 8.027344 -32.125 7.097656 -29.554688 6.734375 -26.375 C 6.0625 -20.320312 6.753906 -15.40625 8.816406 -11.628906 C 10.757812 -8.078125 13.882812 -5.699219 18.199219 -4.492188 C 22.867188 -3.1875 28.765625 -3.460938 35.890625 -5.3125 L 38.667969 -6.035156 L 40.011719 -3.503906 C 40.660156 -2.285156 41.546875 -1.457031 42.671875 -1.027344 C 44.015625 -0.511719 45.792969 -0.445312 48.003906 -0.835938 Z M 23.554688 -22.691406 C 23.625 -22.222656 23.964844 -21.820312 24.570312 -21.480469 C 25.753906 -20.820312 27.207031 -20.417969 28.925781 -20.273438 C 30.816406 -20.113281 32.503906 -20.1875 33.988281 -20.492188 L 34.722656 -16.9375 L 31.089844 -16.9375 C 31.089844 -20.445312 31.183594 -24.996094 31.375 -30.589844 L 35.007812 -30.464844 L 34.59375 -26.855469 C 30.679688 -27.304688 27.828125 -27.253906 26.039062 -26.707031 C 24.8125 -26.332031 24.09375 -25.914062 23.882812 -25.457031 C 23.515625 -24.652344 23.410156 -23.714844 23.558594 -22.652344 Z M 16.367188 -21.625 C 16.015625 -24.09375 16.316406 -26.378906 17.273438 -28.472656 C 18.386719 -30.917969 20.601562 -32.644531 23.917969 -33.65625 C 26.667969 -34.496094 30.503906 -34.636719 35.417969 -34.074219 L 38.753906 -33.695312 L 38.636719 -30.339844 C 38.449219 -24.832031 38.355469 -20.363281 38.355469 -16.9375 L 38.355469 -13.976562 L 35.460938 -13.378906 C 33.285156 -12.929688 30.902344 -12.8125 28.316406 -13.03125 C 25.554688 -13.265625 23.128906 -13.964844 21.03125 -15.132812 C 18.359375 -16.625 16.804688 -18.777344 16.371094 -21.585938 Z M 16.367188 -21.625 "/></g></g><g style="fill:#6e5227;fill-opacity:1;"><g transform="translate(185.641114, 192.717433)"><path style="stroke:none" d=""/></g></g><g style="fill:#6e5227;fill-opacity:1;"><g transform="translate(224.424496, 192.717433)"><path style="stroke:none" d=""/></g></g><g style="fill:#6e5227;fill-opacity:1;"><g transform="translate(263.216434, 192.717433)"><path style="stroke:none" d="M 38.320312 8.363281 C 34.609375 8.363281 30.996094 7.917969 27.488281 7.019531 C 23.734375 6.066406 20.351562 4.320312 17.339844 1.785156 C 14.277344 -0.789062 11.863281 -4.371094 10.09375 -8.957031 C 8.394531 -13.359375 7.476562 -18.929688 7.34375 -25.664062 C 7.34375 -27.121094 7.359375 -28.773438 7.390625 -30.621094 C 7.421875 -32.464844 7.46875 -34.558594 7.53125 -36.902344 L 11.164062 -36.804688 L 11.164062 -33.171875 L 11.070312 -33.171875 C 7.960938 -33.171875 5.371094 -34.066406 3.300781 -35.851562 C 0.570312 -38.21875 -0.796875 -41.21875 -0.796875 -44.847656 C -0.796875 -48.066406 0.265625 -50.636719 2.386719 -52.554688 C 4.644531 -54.632812 7.476562 -55.671875 10.878906 -55.671875 L 11.730469 -55.671875 L 11.730469 -52.039062 L 8.101562 -52.222656 L 8.292969 -55.957031 L 8.480469 -59.964844 C 8.535156 -60.921875 8.539062 -61.828125 8.484375 -62.691406 C 8.398438 -64.03125 8.488281 -65.308594 8.746094 -66.519531 L 8.753906 -66.558594 L 8.765625 -66.597656 C 9.257812 -68.660156 10.242188 -70.351562 11.71875 -71.679688 C 13.070312 -72.886719 14.625 -73.726562 16.390625 -74.191406 C 17.890625 -74.621094 19.691406 -74.921875 21.785156 -75.101562 C 24.070312 -75.292969 26.238281 -75.113281 28.289062 -74.5625 C 30.953125 -73.847656 32.875 -72.355469 34.0625 -70.089844 C 34.925781 -68.460938 35.316406 -66.316406 35.234375 -63.65625 C 35.167969 -61.621094 35.074219 -59.175781 34.945312 -56.324219 L 34.945312 -56.253906 L 34.9375 -56.183594 C 34.882812 -55.527344 34.855469 -54.871094 34.855469 -54.214844 C 34.855469 -53.347656 34.820312 -52.511719 34.746094 -51.707031 L 31.128906 -52.039062 L 31.128906 -55.671875 L 32.832031 -55.671875 C 36.703125 -55.671875 39.691406 -54.472656 41.804688 -52.074219 C 43.792969 -49.808594 44.789062 -47.273438 44.789062 -44.46875 C 44.789062 -43.222656 44.609375 -42.011719 44.25 -40.84375 C 43.53125 -38.414062 42.449219 -36.644531 41.007812 -35.53125 L 38.792969 -38.414062 L 41.265625 -35.75 C 39.738281 -34.332031 37.9375 -33.570312 35.859375 -33.460938 L 35.667969 -37.089844 L 36.234375 -33.5 C 34.851562 -33.28125 33.367188 -33.171875 31.789062 -33.171875 L 30.65625 -33.171875 L 30.65625 -36.804688 L 34.289062 -36.722656 C 34.164062 -31.300781 34.253906 -26.796875 34.558594 -23.203125 C 34.816406 -20.144531 35.429688 -17.941406 36.398438 -16.59375 C 37.03125 -15.710938 38.144531 -15.269531 39.738281 -15.269531 C 40.980469 -15.269531 42.113281 -14.945312 43.144531 -14.289062 C 44.058594 -13.707031 44.828125 -12.894531 45.453125 -11.851562 C 46.398438 -10.28125 46.976562 -8.417969 47.183594 -6.269531 C 47.378906 -4.308594 47.28125 -2.339844 46.902344 -0.355469 C 46.476562 1.851562 45.664062 3.734375 44.460938 5.292969 C 42.878906 7.339844 40.832031 8.363281 38.320312 8.363281 Z M 38.320312 1.097656 C 38.402344 1.097656 38.457031 1.089844 38.484375 1.078125 C 38.539062 1.046875 38.613281 0.972656 38.707031 0.855469 C 39.207031 0.207031 39.558594 -0.652344 39.765625 -1.726562 C 40.015625 -3.023438 40.078125 -4.300781 39.953125 -5.558594 C 39.847656 -6.625 39.605469 -7.476562 39.222656 -8.113281 C 39.1875 -8.175781 39.15625 -8.21875 39.136719 -8.242188 C 39.15625 -8.214844 39.191406 -8.1875 39.242188 -8.15625 C 39.402344 -8.054688 39.570312 -8.003906 39.738281 -8.003906 C 35.65625 -8.003906 32.574219 -9.457031 30.492188 -12.359375 C 28.746094 -14.792969 27.691406 -18.203125 27.316406 -22.589844 C 26.992188 -26.441406 26.894531 -31.207031 27.023438 -36.886719 L 27.101562 -40.4375 L 31.789062 -40.4375 C 32.988281 -40.4375 34.09375 -40.519531 35.101562 -40.675781 L 35.289062 -40.707031 L 35.476562 -40.714844 C 35.800781 -40.734375 36.078125 -40.851562 36.320312 -41.074219 L 36.441406 -41.191406 L 36.574219 -41.292969 L 36.574219 -41.296875 C 36.625 -41.359375 36.679688 -41.445312 36.742188 -41.554688 C 36.9375 -41.898438 37.125 -42.371094 37.304688 -42.980469 C 37.449219 -43.453125 37.523438 -43.949219 37.523438 -44.46875 C 37.523438 -45.445312 37.132812 -46.382812 36.347656 -47.273438 C 35.683594 -48.027344 34.511719 -48.402344 32.832031 -48.402344 L 27.148438 -48.402344 L 27.507812 -52.367188 C 27.5625 -52.949219 27.589844 -53.566406 27.589844 -54.214844 C 27.589844 -55.070312 27.625 -55.929688 27.695312 -56.785156 L 31.316406 -56.484375 L 27.6875 -56.644531 C 27.8125 -59.46875 27.90625 -61.878906 27.96875 -63.882812 C 28.011719 -65.257812 27.898438 -66.207031 27.625 -66.71875 C 27.421875 -67.105469 27.015625 -67.378906 26.398438 -67.546875 C 25.167969 -67.878906 23.835938 -67.980469 22.398438 -67.859375 C 20.773438 -67.722656 19.386719 -67.488281 18.238281 -67.164062 C 17.605469 -66.996094 17.050781 -66.699219 16.570312 -66.269531 C 16.21875 -65.953125 15.972656 -65.503906 15.835938 -64.914062 L 12.300781 -65.757812 L 15.851562 -64.996094 C 15.734375 -64.4375 15.695312 -63.820312 15.738281 -63.144531 C 15.808594 -61.988281 15.808594 -60.816406 15.738281 -59.625 L 15.550781 -55.589844 L 15.1875 -48.402344 L 10.878906 -48.402344 C 9.367188 -48.402344 8.160156 -47.992188 7.261719 -47.167969 C 6.734375 -46.691406 6.472656 -45.917969 6.472656 -44.847656 C 6.472656 -43.429688 7 -42.265625 8.050781 -41.351562 C 8.757812 -40.742188 9.761719 -40.4375 11.070312 -40.4375 L 14.898438 -40.4375 L 14.796875 -36.707031 C 14.734375 -34.382812 14.6875 -32.316406 14.65625 -30.496094 C 14.625 -28.6875 14.609375 -27.125 14.609375 -25.808594 C 14.726562 -19.925781 15.480469 -15.179688 16.871094 -11.574219 C 18.195312 -8.148438 19.910156 -5.550781 22.019531 -3.773438 C 24.179688 -1.953125 26.601562 -0.703125 29.28125 -0.0195312 C 32.203125 0.726562 35.214844 1.097656 38.320312 1.097656 Z M 38.320312 1.097656 "/></g></g><g style="fill:#dcc095;fill-opacity:1;"><g transform="translate(54.137891, 192.717433)"><path style="stroke:none" d="M 9.9375 5.109375 C 7.539062 4.347656 5.820312 3.144531 4.78125 1.5 C 3.738281 -0.132812 3.125 -1.988281 2.9375 -4.0625 C 2.75 -6.144531 2.78125 -8.289062 3.03125 -10.5 C 3.28125 -12.707031 3.5 -14.757812 3.6875 -16.65625 C 4.195312 -21.445312 4.828125 -26.191406 5.578125 -30.890625 C 6.335938 -35.585938 7.441406 -40.207031 8.890625 -44.75 C 10.085938 -48.476562 11.632812 -52.078125 13.53125 -55.546875 C 15.425781 -59.015625 17.726562 -62.070312 20.4375 -64.71875 C 23.144531 -67.363281 26.25 -69.363281 29.75 -70.71875 C 33.257812 -72.082031 37.21875 -72.476562 41.625 -71.90625 C 46.039062 -71.34375 49.703125 -69.828125 52.609375 -67.359375 C 55.515625 -64.898438 57.847656 -61.859375 59.609375 -58.234375 C 61.378906 -54.609375 62.703125 -50.773438 63.578125 -46.734375 C 64.460938 -42.703125 65.097656 -38.828125 65.484375 -35.109375 C 65.734375 -32.710938 66 -30.109375 66.28125 -27.296875 C 66.5625 -24.492188 66.828125 -21.671875 67.078125 -18.828125 C 67.335938 -15.992188 67.46875 -13.375 67.46875 -10.96875 C 67.46875 -8.070312 67.117188 -5.488281 66.421875 -3.21875 C 65.722656 -0.945312 64.113281 1.007812 61.59375 2.65625 C 60.019531 3.53125 58.347656 4.09375 56.578125 4.34375 C 54.816406 4.601562 53.144531 4.507812 51.5625 4.0625 C 49.988281 3.625 48.726562 2.820312 47.78125 1.65625 C 46.832031 0.488281 46.421875 -1.070312 46.546875 -3.03125 C 46.867188 -7 46.332031 -9.707031 44.9375 -11.15625 C 43.550781 -12.613281 40.96875 -13.25 37.1875 -13.0625 C 34.914062 -13 33.082031 -12.757812 31.6875 -12.34375 C 30.300781 -11.9375 29.289062 -11.117188 28.65625 -9.890625 C 28.03125 -8.660156 27.71875 -6.75 27.71875 -4.15625 C 27.40625 -0.8125 26.410156 1.675781 24.734375 3.3125 C 23.066406 4.945312 20.941406 5.859375 18.359375 6.046875 C 15.773438 6.242188 12.96875 5.929688 9.9375 5.109375 Z M 29.328125 -31.515625 C 29.265625 -31.003906 29.390625 -30.554688 29.703125 -30.171875 C 30.023438 -29.796875 30.4375 -29.640625 30.9375 -29.703125 C 32.769531 -29.898438 34.597656 -29.984375 36.421875 -29.953125 C 38.253906 -29.921875 40.054688 -29.90625 41.828125 -29.90625 L 45.140625 -29.90625 C 45.578125 -29.90625 45.9375 -30.046875 46.21875 -30.328125 C 46.5 -30.609375 46.609375 -30.96875 46.546875 -31.40625 C 46.359375 -32.925781 46.1875 -34.707031 46.03125 -36.75 C 45.875 -38.800781 45.570312 -40.804688 45.125 -42.765625 C 44.6875 -44.722656 43.992188 -46.347656 43.046875 -47.640625 C 42.097656 -48.929688 40.804688 -49.578125 39.171875 -49.578125 C 37.472656 -49.578125 36.054688 -48.945312 34.921875 -47.6875 C 33.785156 -46.425781 32.851562 -44.832031 32.125 -42.90625 C 31.394531 -40.988281 30.828125 -39.003906 30.421875 -36.953125 C 30.015625 -34.898438 29.648438 -33.085938 29.328125 -31.515625 Z M 29.328125 -31.515625 "/></g></g><g style="fill:#dcc095;fill-opacity:1;"><g transform="translate(124.420947, 192.717433)"><path style="stroke:none" d="M 48.640625 2.75 C 42.898438 3.757812 38.957031 2.242188 36.8125 -1.796875 C 29.050781 0.222656 22.519531 0.492188 17.21875 -0.984375 C 11.914062 -2.472656 8.050781 -5.441406 5.625 -9.890625 C 3.195312 -14.335938 2.363281 -19.96875 3.125 -26.78125 C 3.5625 -30.625 4.726562 -33.789062 6.625 -36.28125 C 8.519531 -38.78125 10.820312 -40.753906 13.53125 -42.203125 C 16.238281 -43.648438 19.039062 -44.6875 21.9375 -45.3125 C 24.84375 -45.945312 27.507812 -46.296875 29.9375 -46.359375 C 32.375 -46.421875 34.253906 -46.328125 35.578125 -46.078125 C 35.640625 -48.222656 35.71875 -50.476562 35.8125 -52.84375 C 35.90625 -55.207031 35.984375 -57.679688 36.046875 -60.265625 C 36.109375 -61.660156 36.09375 -63.019531 36 -64.34375 C 35.90625 -65.664062 35.984375 -66.925781 36.234375 -68.125 C 36.617188 -69.957031 37.363281 -71.410156 38.46875 -72.484375 C 39.570312 -73.554688 40.816406 -74.3125 42.203125 -74.75 C 44.597656 -75.445312 47.101562 -75.695312 49.71875 -75.5 C 52.34375 -75.3125 54.503906 -74.492188 56.203125 -73.046875 C 57.398438 -72.035156 58.0625 -70.203125 58.1875 -67.546875 C 58.3125 -64.898438 58.34375 -61.6875 58.28125 -57.90625 C 58.21875 -54.0625 58.0625 -50.164062 57.8125 -46.21875 C 57.5625 -42.28125 57.40625 -38.382812 57.34375 -34.53125 C 57.46875 -28.101562 57.53125 -22.773438 57.53125 -18.546875 C 57.53125 -14.316406 57.484375 -10.972656 57.390625 -8.515625 C 57.296875 -6.054688 57.117188 -4.164062 56.859375 -2.84375 C 56.609375 -1.132812 55.773438 0.109375 54.359375 0.890625 C 52.941406 1.679688 51.035156 2.300781 48.640625 2.75 Z M 19.96875 -22.140625 C 20.21875 -20.503906 21.160156 -19.226562 22.796875 -18.3125 C 24.441406 -17.394531 26.382812 -16.84375 28.625 -16.65625 C 30.863281 -16.46875 32.894531 -16.5625 34.71875 -16.9375 C 34.71875 -20.40625 34.816406 -24.914062 35.015625 -30.46875 C 30.597656 -30.96875 27.253906 -30.867188 24.984375 -30.171875 C 22.710938 -29.484375 21.242188 -28.414062 20.578125 -26.96875 C 19.921875 -25.519531 19.71875 -23.910156 19.96875 -22.140625 Z M 19.96875 -22.140625 "/></g></g><g style="fill:#dcc095;fill-opacity:1;"><g transform="translate(185.641114, 192.717433)"><path style="stroke:none" d=""/></g></g><g style="fill:#dcc095;fill-opacity:1;"><g transform="translate(224.424496, 192.717433)"><path style="stroke:none" d=""/></g></g><g style="fill:#dcc095;fill-opacity:1;"><g transform="translate(263.216434, 192.717433)"><path style="stroke:none" d="M 38.328125 4.734375 C 34.921875 4.734375 31.609375 4.320312 28.390625 3.5 C 25.171875 2.675781 22.265625 1.175781 19.671875 -1 C 17.085938 -3.175781 15.023438 -6.265625 13.484375 -10.265625 C 11.941406 -14.273438 11.101562 -19.429688 10.96875 -25.734375 C 10.96875 -27.117188 10.984375 -28.726562 11.015625 -30.5625 C 11.054688 -32.394531 11.109375 -34.476562 11.171875 -36.8125 L 11.078125 -36.8125 C 8.867188 -36.8125 7.066406 -37.410156 5.671875 -38.609375 C 3.785156 -40.242188 2.84375 -42.320312 2.84375 -44.84375 C 2.84375 -46.988281 3.503906 -48.660156 4.828125 -49.859375 C 6.398438 -51.316406 8.414062 -52.046875 10.875 -52.046875 L 11.734375 -52.046875 C 11.796875 -53.242188 11.859375 -54.488281 11.921875 -55.78125 C 11.984375 -57.070312 12.046875 -58.410156 12.109375 -59.796875 C 12.171875 -60.867188 12.171875 -61.910156 12.109375 -62.921875 C 12.046875 -63.929688 12.109375 -64.878906 12.296875 -65.765625 C 12.617188 -67.085938 13.234375 -68.15625 14.140625 -68.96875 C 15.054688 -69.789062 16.113281 -70.363281 17.3125 -70.6875 C 18.632812 -71.0625 20.226562 -71.328125 22.09375 -71.484375 C 23.957031 -71.640625 25.707031 -71.492188 27.34375 -71.046875 C 28.988281 -70.609375 30.15625 -69.726562 30.84375 -68.40625 C 31.414062 -67.332031 31.671875 -65.785156 31.609375 -63.765625 C 31.546875 -61.753906 31.445312 -59.328125 31.3125 -56.484375 C 31.25 -55.734375 31.21875 -54.976562 31.21875 -54.21875 C 31.21875 -53.457031 31.1875 -52.734375 31.125 -52.046875 L 32.828125 -52.046875 C 35.609375 -52.046875 37.691406 -51.253906 39.078125 -49.671875 C 40.460938 -48.097656 41.15625 -46.363281 41.15625 -44.46875 C 41.15625 -43.582031 41.03125 -42.734375 40.78125 -41.921875 C 40.28125 -40.210938 39.617188 -39.046875 38.796875 -38.421875 C 37.910156 -37.597656 36.867188 -37.15625 35.671875 -37.09375 C 34.472656 -36.90625 33.179688 -36.8125 31.796875 -36.8125 L 30.65625 -36.8125 C 30.53125 -31.257812 30.625 -26.617188 30.9375 -22.890625 C 31.25 -19.171875 32.082031 -16.363281 33.4375 -14.46875 C 34.800781 -12.582031 36.898438 -11.640625 39.734375 -11.640625 C 40.804688 -11.640625 41.671875 -11.085938 42.328125 -9.984375 C 42.992188 -8.878906 43.40625 -7.519531 43.5625 -5.90625 C 43.726562 -4.300781 43.648438 -2.675781 43.328125 -1.03125 C 43.015625 0.601562 42.429688 1.972656 41.578125 3.078125 C 40.734375 4.179688 39.648438 4.734375 38.328125 4.734375 Z M 38.328125 4.734375 "/></g></g><g style="fill:#6e5227;fill-opacity:1;"><g transform="translate(54.137891, 248.775824)"><path style="stroke:none" d="M 32.707031 5.683594 C 31.609375 5.34375 30.503906 4.691406 29.386719 3.726562 C 27.972656 2.5 27.175781 0.839844 27 -1.253906 L 26.925781 -1.996094 L 29.957031 -2.296875 L 31.136719 0.507812 C 26.257812 2.5625 21.757812 3.347656 17.632812 2.863281 C 13.441406 2.371094 9.832031 0.859375 6.804688 -1.664062 C 3.828125 -4.152344 1.640625 -7.285156 0.238281 -11.066406 C -0.714844 -13.714844 -0.921875 -16.164062 -0.386719 -18.417969 C 0.128906 -20.570312 1.117188 -22.484375 2.585938 -24.15625 C 3.921875 -25.679688 5.445312 -26.96875 7.15625 -28.027344 C 8.800781 -29.042969 10.414062 -29.824219 12 -30.375 C 13.582031 -30.921875 14.933594 -31.261719 16.046875 -31.394531 L 16.082031 -31.398438 L 16.117188 -31.398438 C 18.390625 -31.617188 20.199219 -31.753906 21.550781 -31.808594 C 22.914062 -31.863281 24.09375 -31.875 25.089844 -31.847656 C 26.035156 -31.820312 27.046875 -31.78125 28.125 -31.726562 L 27.972656 -28.6875 L 27.972656 -31.730469 C 27.765625 -31.730469 27.546875 -31.695312 27.320312 -31.621094 C 26.839844 -31.46875 26.433594 -31.199219 26.097656 -30.804688 C 25.71875 -30.363281 25.503906 -29.859375 25.449219 -29.289062 C 25.417969 -28.976562 25.445312 -28.683594 25.523438 -28.40625 L 28.449219 -29.242188 L 25.5625 -28.28125 C 25.183594 -29.414062 24.714844 -30.371094 24.15625 -31.152344 C 23.742188 -31.726562 23.183594 -32.167969 22.480469 -32.472656 C 22.066406 -32.65625 21.722656 -32.773438 21.449219 -32.832031 C 21.375 -32.84375 21.320312 -32.855469 21.285156 -32.855469 C 21.3125 -32.855469 21.359375 -32.859375 21.417969 -32.871094 L 21.40625 -32.878906 C 21.054688 -32.484375 20.707031 -32.03125 20.363281 -31.515625 C 19.714844 -30.542969 18.90625 -29.734375 17.933594 -29.085938 C 16.742188 -28.292969 15.285156 -27.9375 13.558594 -28.023438 L 13.710938 -31.066406 L 13.710938 -28.019531 C 12.5625 -28.019531 11.308594 -28.265625 9.949219 -28.753906 C 8.472656 -29.285156 7.1875 -30.117188 6.09375 -31.246094 C 4.789062 -32.59375 4.097656 -34.300781 4.011719 -36.367188 C 3.933594 -38.292969 4.644531 -40.445312 6.140625 -42.828125 C 7.230469 -44.53125 8.867188 -46.09375 11.054688 -47.519531 C 13.128906 -48.875 15.523438 -49.949219 18.242188 -50.746094 C 20.992188 -51.550781 23.839844 -51.898438 26.789062 -51.777344 C 29.832031 -51.65625 32.785156 -50.890625 35.652344 -49.488281 C 38.585938 -48.054688 41.164062 -45.8125 43.390625 -42.765625 C 45.574219 -39.773438 47.1875 -35.816406 48.226562 -30.902344 C 49.519531 -24.925781 50.34375 -20.015625 50.695312 -16.167969 C 51.058594 -12.242188 51.109375 -9.070312 50.851562 -6.648438 C 50.578125 -4.09375 50.09375 -2.070312 49.394531 -0.574219 C 48.761719 0.78125 48.125 1.90625 47.488281 2.800781 C 46.488281 4.253906 44.566406 5.324219 41.722656 6.011719 C 39.160156 6.625 36.214844 6.535156 32.886719 5.730469 L 32.796875 5.710938 Z M 34.496094 -0.136719 L 33.601562 2.773438 L 34.3125 -0.183594 C 36.691406 0.386719 38.6875 0.480469 40.296875 0.09375 C 41.113281 -0.105469 41.746094 -0.316406 42.203125 -0.546875 C 42.351562 -0.621094 42.464844 -0.691406 42.542969 -0.753906 C 42.554688 -0.761719 42.5625 -0.765625 42.5625 -0.765625 C 42.542969 -0.75 42.535156 -0.738281 42.535156 -0.738281 C 42.957031 -1.328125 43.402344 -2.128906 43.878906 -3.148438 C 44.289062 -4.03125 44.597656 -5.414062 44.800781 -7.296875 C 45.015625 -9.316406 44.960938 -12.085938 44.636719 -15.609375 C 44.304688 -19.210938 43.515625 -23.890625 42.273438 -29.640625 C 41.410156 -33.707031 40.144531 -36.886719 38.472656 -39.175781 C 36.839844 -41.414062 35.007812 -43.027344 32.976562 -44.023438 C 30.875 -45.050781 28.730469 -45.605469 26.542969 -45.695312 C 24.261719 -45.789062 22.066406 -45.523438 19.957031 -44.90625 C 17.8125 -44.277344 15.953125 -43.449219 14.382812 -42.421875 C 12.925781 -41.472656 11.894531 -40.527344 11.292969 -39.589844 C 10.464844 -38.273438 10.066406 -37.28125 10.09375 -36.617188 C 10.113281 -36.09375 10.238281 -35.714844 10.46875 -35.476562 C 10.90625 -35.023438 11.417969 -34.695312 12.003906 -34.484375 C 12.703125 -34.234375 13.269531 -34.109375 13.710938 -34.109375 L 13.785156 -34.109375 L 13.863281 -34.105469 C 14.121094 -34.089844 14.328125 -34.101562 14.484375 -34.136719 C 14.523438 -34.144531 14.554688 -34.152344 14.574219 -34.160156 C 14.574219 -34.160156 14.566406 -34.15625 14.558594 -34.152344 C 14.855469 -34.347656 15.101562 -34.597656 15.296875 -34.890625 C 15.800781 -35.644531 16.324219 -36.328125 16.871094 -36.9375 C 17.777344 -37.949219 18.90625 -38.585938 20.265625 -38.847656 C 21.570312 -39.097656 23.117188 -38.835938 24.90625 -38.054688 C 26.636719 -37.304688 28.03125 -36.1875 29.097656 -34.703125 C 30.019531 -33.421875 30.765625 -31.921875 31.335938 -30.203125 L 31.359375 -30.140625 L 31.375 -30.078125 C 31.507812 -29.617188 31.550781 -29.160156 31.507812 -28.710938 C 31.441406 -28 31.179688 -27.378906 30.71875 -26.84375 C 30.035156 -26.042969 29.117188 -25.644531 27.972656 -25.644531 L 27.898438 -25.644531 L 27.820312 -25.648438 C 26.789062 -25.699219 25.816406 -25.738281 24.914062 -25.765625 C 24.0625 -25.789062 23.023438 -25.777344 21.796875 -25.726562 C 20.558594 -25.675781 18.855469 -25.546875 16.691406 -25.339844 L 16.402344 -28.371094 L 16.757812 -25.347656 C 16.082031 -25.269531 15.15625 -25.027344 13.992188 -24.621094 C 12.832031 -24.21875 11.617188 -23.628906 10.355469 -22.847656 C 9.164062 -22.109375 8.097656 -21.207031 7.160156 -20.140625 C 6.355469 -19.226562 5.816406 -18.179688 5.535156 -17.007812 C 5.28125 -15.929688 5.414062 -14.65625 5.945312 -13.183594 C 6.972656 -10.414062 8.558594 -8.132812 10.707031 -6.335938 C 12.804688 -4.585938 15.351562 -3.53125 18.34375 -3.179688 C 21.40625 -2.820312 24.882812 -3.460938 28.773438 -5.101562 L 32.574219 -6.703125 L 33.066406 -1.757812 C 33.105469 -1.3125 33.207031 -1.019531 33.375 -0.875 C 33.84375 -0.464844 34.21875 -0.21875 34.496094 -0.136719 Z M 20.824219 -15.128906 C 20.214844 -15.050781 19.71875 -14.941406 19.339844 -14.800781 C 19.132812 -14.722656 19.003906 -14.660156 18.949219 -14.609375 C 18.914062 -14.574219 18.890625 -14.546875 18.875 -14.523438 C 18.882812 -14.539062 18.894531 -14.558594 18.90625 -14.589844 C 18.945312 -14.6875 18.960938 -14.785156 18.949219 -14.878906 C 18.945312 -14.90625 18.9375 -14.929688 18.917969 -14.953125 C 18.9375 -14.925781 18.992188 -14.878906 19.074219 -14.816406 C 19.332031 -14.628906 19.816406 -14.535156 20.523438 -14.535156 L 20.523438 -11.492188 L 20.457031 -14.535156 C 22.664062 -14.582031 24.304688 -14.710938 25.382812 -14.914062 C 26.429688 -15.117188 27.261719 -15.339844 27.875 -15.585938 L 29.003906 -12.757812 L 27.527344 -15.417969 C 27.289062 -15.289062 27.089844 -15.085938 26.929688 -14.820312 C 26.757812 -14.535156 26.675781 -14.246094 26.675781 -13.949219 L 26.675781 -16.246094 C 26.675781 -16.320312 26.671875 -16.378906 26.667969 -16.421875 C 26.671875 -16.394531 26.679688 -16.351562 26.691406 -16.292969 C 26.746094 -16.066406 26.839844 -15.839844 26.972656 -15.617188 C 27.332031 -15.023438 27.84375 -14.613281 28.515625 -14.386719 L 28.269531 -14.472656 L 28.035156 -14.597656 C 27.617188 -14.824219 26.894531 -15.039062 25.871094 -15.242188 C 24.867188 -15.445312 23.175781 -15.40625 20.800781 -15.125 Z M 20.089844 -21.167969 C 23.105469 -21.523438 25.429688 -21.539062 27.066406 -21.210938 C 28.683594 -20.886719 29.96875 -20.46875 30.921875 -19.957031 L 29.480469 -17.277344 L 30.441406 -20.164062 C 31.988281 -19.648438 32.761719 -18.34375 32.761719 -16.246094 L 32.761719 -13.949219 C 32.761719 -13.121094 32.558594 -12.367188 32.148438 -11.6875 C 31.75 -11.023438 31.195312 -10.496094 30.480469 -10.097656 L 30.3125 -10.003906 L 30.132812 -9.933594 C 29.160156 -9.542969 27.957031 -9.210938 26.527344 -8.9375 C 25.117188 -8.667969 23.140625 -8.503906 20.59375 -8.449219 L 20.523438 -8.449219 C 18.488281 -8.449219 16.804688 -8.933594 15.476562 -9.910156 C 13.980469 -11.007812 13.121094 -12.410156 12.910156 -14.125 C 12.675781 -15.976562 13.285156 -17.601562 14.730469 -18.992188 C 15.929688 -20.148438 17.707031 -20.871094 20.066406 -21.167969 Z M 20.089844 -21.167969 "/></g></g><g style="fill:#6e5227;fill-opacity:1;"><g transform="translate(104.456499, 248.775824)"><path style="stroke:none" d="M 31.804688 12.886719 C 30.171875 12.367188 28.761719 11.507812 27.566406 10.3125 C 26.300781 9.050781 25.449219 7.417969 25.003906 5.414062 C 24.726562 4.171875 24.640625 2.871094 24.742188 1.515625 C 24.8125 0.585938 24.824219 -0.34375 24.777344 -1.273438 L 24.773438 -1.3125 L 24.773438 -1.351562 C 24.722656 -3.445312 24.65625 -5.421875 24.578125 -7.28125 C 24.496094 -9.167969 24.429688 -10.960938 24.378906 -12.664062 L 27.417969 -12.757812 L 27.988281 -9.769531 C 26.734375 -9.53125 25.078125 -9.367188 23.027344 -9.28125 C 20.9375 -9.195312 18.703125 -9.324219 16.324219 -9.667969 C 13.839844 -10.027344 11.433594 -10.742188 9.105469 -11.816406 C 6.613281 -12.96875 4.507812 -14.613281 2.78125 -16.753906 C 0.980469 -18.984375 -0.109375 -21.847656 -0.488281 -25.347656 C -1.074219 -31.316406 -0.335938 -36.480469 1.726562 -40.84375 C 3.894531 -45.433594 7.378906 -48.65625 12.179688 -50.507812 C 16.832031 -52.300781 22.507812 -52.320312 29.21875 -50.570312 L 28.449219 -47.628906 L 25.902344 -49.296875 C 27.316406 -51.449219 29.449219 -52.949219 32.300781 -53.792969 C 34.902344 -54.566406 37.605469 -54.695312 40.40625 -54.1875 C 42.636719 -53.816406 44.464844 -53.222656 45.886719 -52.410156 C 47.847656 -51.289062 49.007812 -49.558594 49.367188 -47.21875 L 46.359375 -46.753906 L 49.335938 -47.382812 C 49.582031 -46.210938 49.75 -44.566406 49.835938 -42.441406 C 49.917969 -40.445312 49.957031 -37.777344 49.957031 -34.433594 C 49.957031 -31.109375 49.902344 -26.875 49.796875 -21.730469 L 46.753906 -21.792969 L 49.796875 -21.84375 C 49.851562 -18.824219 49.96875 -15.789062 50.148438 -12.742188 C 50.335938 -9.609375 50.457031 -6.488281 50.511719 -3.378906 C 50.566406 -0.355469 50.539062 2.25 50.429688 4.429688 C 50.277344 7.433594 49.386719 9.613281 47.753906 10.976562 C 46.453125 12.046875 44.761719 12.789062 42.675781 13.207031 C 40.863281 13.570312 38.996094 13.722656 37.070312 13.660156 C 35.125 13.601562 33.390625 13.347656 31.875 12.90625 L 31.839844 12.894531 Z M 33.652344 7.085938 L 32.730469 9.984375 L 33.582031 7.0625 C 34.601562 7.359375 35.828125 7.53125 37.261719 7.578125 C 38.71875 7.621094 40.125 7.511719 41.484375 7.238281 C 42.570312 7.019531 43.359375 6.707031 43.855469 6.300781 C 43.910156 6.253906 43.976562 6.125 44.054688 5.914062 C 44.214844 5.472656 44.3125 4.878906 44.351562 4.128906 C 44.453125 2.082031 44.476562 -0.386719 44.425781 -3.277344 C 44.375 -6.296875 44.257812 -9.332031 44.074219 -12.378906 C 43.886719 -15.511719 43.765625 -18.632812 43.710938 -21.742188 L 43.710938 -21.855469 C 43.816406 -26.960938 43.871094 -31.152344 43.871094 -34.433594 C 43.871094 -37.695312 43.832031 -40.28125 43.753906 -42.195312 C 43.683594 -43.980469 43.558594 -45.289062 43.382812 -46.128906 L 43.363281 -46.210938 L 43.351562 -46.292969 C 43.289062 -46.699219 43.128906 -46.976562 42.867188 -47.125 C 42.074219 -47.578125 40.890625 -47.9375 39.316406 -48.199219 C 37.46875 -48.535156 35.707031 -48.453125 34.027344 -47.957031 C 32.601562 -47.535156 31.589844 -46.871094 30.996094 -45.960938 L 29.796875 -44.128906 L 27.679688 -44.683594 C 22.238281 -46.101562 17.800781 -46.152344 14.367188 -44.828125 C 11.085938 -43.5625 8.703125 -41.367188 7.230469 -38.242188 C 5.644531 -34.894531 5.089844 -30.816406 5.5625 -26.007812 C 5.8125 -23.691406 6.46875 -21.878906 7.519531 -20.574219 C 8.648438 -19.171875 10.027344 -18.097656 11.65625 -17.34375 C 13.449219 -16.515625 15.296875 -15.964844 17.195312 -15.691406 C 19.203125 -15.402344 21.0625 -15.292969 22.777344 -15.363281 C 24.527344 -15.4375 25.886719 -15.566406 26.851562 -15.75 L 30.351562 -16.414062 L 30.460938 -12.855469 C 30.511719 -11.175781 30.578125 -9.402344 30.65625 -7.539062 C 30.738281 -5.644531 30.804688 -3.632812 30.859375 -1.503906 L 27.816406 -1.425781 L 30.855469 -1.578125 C 30.914062 -0.394531 30.898438 0.789062 30.8125 1.972656 C 30.753906 2.730469 30.796875 3.4375 30.945312 4.09375 C 31.132812 4.945312 31.441406 5.582031 31.871094 6.011719 C 32.367188 6.507812 32.960938 6.863281 33.652344 7.085938 Z M 18.144531 -31.078125 C 18.023438 -30.300781 18.105469 -29.609375 18.382812 -28.996094 C 18.425781 -28.902344 18.519531 -28.800781 18.667969 -28.691406 C 18.964844 -28.476562 19.394531 -28.285156 19.957031 -28.121094 C 21.367188 -27.707031 23.617188 -27.660156 26.703125 -27.988281 L 27.023438 -24.960938 L 23.980469 -24.855469 C 23.820312 -29.328125 23.742188 -32.929688 23.742188 -35.660156 L 26.785156 -35.660156 L 26.125 -32.691406 C 25.023438 -32.933594 23.765625 -32.984375 22.351562 -32.832031 C 20.988281 -32.6875 19.820312 -32.359375 18.839844 -31.851562 C 18.421875 -31.636719 18.191406 -31.371094 18.140625 -31.058594 Z M 12.132812 -32.019531 C 12.503906 -34.351562 13.804688 -36.09375 16.03125 -37.25 C 17.691406 -38.117188 19.585938 -38.660156 21.710938 -38.886719 C 23.78125 -39.105469 25.695312 -39.019531 27.445312 -38.632812 L 29.828125 -38.101562 L 29.828125 -35.660156 C 29.828125 -33.003906 29.90625 -29.472656 30.0625 -25.070312 L 30.164062 -22.234375 L 27.34375 -21.9375 C 23.457031 -21.523438 20.421875 -21.640625 18.238281 -22.28125 C 15.554688 -23.070312 13.753906 -24.46875 12.839844 -26.476562 C 12.0625 -28.191406 11.824219 -30.03125 12.128906 -32.003906 Z M 12.132812 -32.019531 "/></g></g><g style="fill:#6e5227;fill-opacity:1;"><g transform="translate(154.378899, 248.775824)"><path style="stroke:none" d="M 20.050781 4.152344 C 18.097656 4.152344 16.066406 3.933594 13.960938 3.496094 C 11.632812 3.007812 9.472656 2.042969 7.484375 0.601562 C 5.386719 -0.921875 3.753906 -3.082031 2.582031 -5.878906 C 1.300781 -9.023438 0.433594 -12.964844 -0.0195312 -17.699219 C -0.449219 -22.234375 -0.664062 -27.136719 -0.664062 -32.410156 C -0.664062 -35.648438 -0.566406 -38.117188 -0.367188 -39.816406 C -0.09375 -42.15625 0.902344 -44.109375 2.628906 -45.679688 C 3.65625 -46.621094 5.078125 -47.296875 6.902344 -47.703125 C 8.414062 -48.042969 10.0625 -48.214844 11.847656 -48.214844 C 13.683594 -48.214844 15.398438 -47.992188 16.988281 -47.546875 C 18.898438 -47.011719 20.375 -46.140625 21.410156 -44.933594 L 19.097656 -42.953125 L 21.25 -45.105469 C 22.375 -43.980469 23.113281 -42.757812 23.464844 -41.4375 C 23.75 -40.367188 23.878906 -39.066406 23.84375 -37.539062 C 23.820312 -36.316406 23.804688 -34.636719 23.804688 -32.492188 C 23.804688 -30.71875 23.867188 -28.984375 23.996094 -27.289062 C 24.125 -25.542969 24.296875 -23.628906 24.503906 -21.539062 L 21.476562 -21.238281 L 24.496094 -21.617188 C 24.703125 -19.945312 25.019531 -18.773438 25.441406 -18.097656 C 25.546875 -17.929688 25.617188 -17.835938 25.648438 -17.8125 C 25.523438 -17.898438 25.375 -17.941406 25.199219 -17.941406 C 25.324219 -17.941406 25.421875 -17.949219 25.496094 -17.964844 C 25.507812 -17.964844 25.511719 -17.96875 25.511719 -17.96875 C 25.492188 -17.960938 25.472656 -17.953125 25.449219 -17.941406 C 25.273438 -17.847656 25.144531 -17.714844 25.0625 -17.542969 C 25.285156 -18.015625 25.386719 -18.996094 25.367188 -20.484375 C 25.339844 -22.453125 25.328125 -25 25.328125 -28.132812 C 25.328125 -32 25.4375 -34.914062 25.664062 -36.878906 C 25.90625 -38.996094 26.289062 -40.710938 26.8125 -42.019531 C 27.566406 -43.910156 28.753906 -45.410156 30.367188 -46.527344 C 31.835938 -47.542969 33.449219 -48.207031 35.199219 -48.523438 C 37 -48.847656 38.660156 -48.78125 40.179688 -48.324219 C 42.132812 -47.730469 43.730469 -47.09375 44.972656 -46.410156 C 46.910156 -45.34375 48.058594 -43.601562 48.417969 -41.179688 C 48.597656 -39.988281 48.699219 -38.28125 48.730469 -36.054688 C 48.753906 -33.949219 48.753906 -31.128906 48.730469 -27.59375 C 48.703125 -24.097656 48.714844 -19.640625 48.769531 -14.214844 C 48.820312 -11.832031 48.886719 -9.769531 48.964844 -8.019531 C 49.054688 -6.011719 48.957031 -4.269531 48.675781 -2.796875 C 48.320312 -0.941406 47.472656 0.65625 46.132812 1.992188 L 46.0625 2.0625 C 44.804688 3.242188 43.074219 4.0625 40.882812 4.523438 C 38.964844 4.925781 36.964844 5.050781 34.882812 4.898438 C 32.753906 4.742188 30.878906 4.320312 29.253906 3.636719 C 26.964844 2.675781 25.601562 1.207031 25.160156 -0.765625 L 28.132812 -1.425781 L 29.914062 1.039062 C 28.84375 1.816406 27.882812 2.421875 27.039062 2.859375 C 26.035156 3.378906 24.964844 3.730469 23.824219 3.914062 C 22.84375 4.074219 21.585938 4.152344 20.050781 4.152344 Z M 20.050781 -1.933594 C 21.261719 -1.933594 22.195312 -1.988281 22.851562 -2.09375 C 23.351562 -2.171875 23.8125 -2.324219 24.234375 -2.542969 C 24.816406 -2.84375 25.519531 -3.292969 26.351562 -3.894531 L 30.101562 -6.601562 L 31.101562 -2.085938 C 31.078125 -2.195312 31.042969 -2.273438 31 -2.320312 C 31.105469 -2.214844 31.308594 -2.101562 31.609375 -1.972656 C 32.625 -1.546875 33.863281 -1.28125 35.328125 -1.171875 C 36.839844 -1.0625 38.273438 -1.148438 39.632812 -1.433594 C 40.714844 -1.660156 41.46875 -1.976562 41.898438 -2.378906 L 43.980469 -0.160156 L 41.828125 -2.308594 C 42.289062 -2.769531 42.574219 -3.3125 42.695312 -3.941406 C 42.890625 -4.949219 42.953125 -6.21875 42.882812 -7.75 C 42.804688 -9.542969 42.734375 -11.675781 42.683594 -14.15625 C 42.628906 -19.613281 42.617188 -24.109375 42.640625 -27.640625 C 42.667969 -31.132812 42.667969 -33.914062 42.640625 -35.980469 C 42.617188 -37.925781 42.535156 -39.363281 42.398438 -40.285156 C 42.332031 -40.71875 42.214844 -40.980469 42.039062 -41.078125 C 41.167969 -41.554688 39.964844 -42.027344 38.433594 -42.492188 C 37.839844 -42.671875 37.121094 -42.683594 36.277344 -42.53125 C 35.390625 -42.371094 34.570312 -42.035156 33.824219 -41.515625 C 33.21875 -41.097656 32.765625 -40.511719 32.464844 -39.761719 C 32.140625 -38.957031 31.890625 -37.765625 31.710938 -36.1875 C 31.511719 -34.453125 31.414062 -31.769531 31.414062 -28.132812 C 31.414062 -25.027344 31.425781 -22.507812 31.453125 -20.566406 C 31.484375 -18.144531 31.191406 -16.269531 30.570312 -14.949219 C 30.0625 -13.875 29.289062 -13.070312 28.238281 -12.53125 C 27.367188 -12.078125 26.351562 -11.855469 25.199219 -11.855469 C 24.128906 -11.855469 23.140625 -12.160156 22.234375 -12.777344 C 21.488281 -13.28125 20.839844 -13.980469 20.28125 -14.871094 C 19.382812 -16.304688 18.777344 -18.304688 18.457031 -20.859375 L 18.453125 -20.898438 L 18.449219 -20.933594 C 18.234375 -23.074219 18.058594 -25.039062 17.925781 -26.835938 C 17.789062 -28.679688 17.71875 -30.566406 17.71875 -32.492188 C 17.71875 -34.679688 17.734375 -36.402344 17.757812 -37.667969 C 17.78125 -38.621094 17.722656 -39.355469 17.585938 -39.871094 C 17.511719 -40.136719 17.300781 -40.445312 16.945312 -40.800781 L 16.863281 -40.882812 L 16.789062 -40.972656 C 16.554688 -41.242188 16.074219 -41.480469 15.347656 -41.683594 C 14.292969 -41.980469 13.128906 -42.128906 11.847656 -42.128906 C 10.515625 -42.128906 9.308594 -42.007812 8.234375 -41.765625 C 7.46875 -41.59375 6.964844 -41.398438 6.722656 -41.175781 C 6.121094 -40.628906 5.773438 -39.941406 5.675781 -39.113281 C 5.507812 -37.644531 5.421875 -35.410156 5.421875 -32.410156 C 5.421875 -27.332031 5.628906 -22.621094 6.039062 -18.277344 C 6.433594 -14.136719 7.152344 -10.785156 8.195312 -8.226562 C 8.925781 -6.480469 9.882812 -5.179688 11.058594 -4.324219 C 12.34375 -3.390625 13.726562 -2.773438 15.203125 -2.464844 C 16.898438 -2.109375 18.515625 -1.933594 20.050781 -1.933594 Z M 20.050781 -1.933594 "/></g></g><g style="fill:#f3e8d7;fill-opacity:1;"><g transform="translate(54.137891, 248.775824)"><path style="stroke:none" d="M 33.59375 2.765625 C 32.90625 2.554688 32.164062 2.109375 31.375 1.421875 C 30.582031 0.734375 30.132812 -0.238281 30.03125 -1.5 L 29.953125 -2.296875 C 25.566406 -0.453125 21.578125 0.257812 17.984375 -0.15625 C 14.390625 -0.582031 11.3125 -1.863281 8.75 -4 C 6.1875 -6.132812 4.300781 -8.84375 3.09375 -12.125 C 2.351562 -14.1875 2.179688 -16.046875 2.578125 -17.703125 C 2.972656 -19.367188 3.738281 -20.847656 4.875 -22.140625 C 6.007812 -23.441406 7.300781 -24.539062 8.75 -25.4375 C 10.207031 -26.332031 11.625 -27.015625 13 -27.484375 C 14.375 -27.960938 15.507812 -28.257812 16.40625 -28.375 C 18.625 -28.582031 20.378906 -28.710938 21.671875 -28.765625 C 22.960938 -28.816406 24.070312 -28.828125 25 -28.796875 C 25.925781 -28.773438 26.914062 -28.738281 27.96875 -28.6875 C 28.394531 -28.6875 28.554688 -28.867188 28.453125 -29.234375 C 27.972656 -30.660156 27.363281 -31.890625 26.625 -32.921875 C 25.882812 -33.953125 24.90625 -34.734375 23.6875 -35.265625 C 22.476562 -35.785156 21.53125 -35.976562 20.84375 -35.84375 C 20.15625 -35.71875 19.585938 -35.40625 19.140625 -34.90625 C 18.691406 -34.40625 18.253906 -33.835938 17.828125 -33.203125 C 17.398438 -32.566406 16.867188 -32.035156 16.234375 -31.609375 C 15.609375 -31.191406 14.765625 -31.007812 13.703125 -31.0625 C 12.910156 -31.0625 12 -31.242188 10.96875 -31.609375 C 9.9375 -31.984375 9.035156 -32.566406 8.265625 -33.359375 C 7.503906 -34.148438 7.097656 -35.191406 7.046875 -36.484375 C 6.992188 -37.785156 7.550781 -39.359375 8.71875 -41.203125 C 9.5625 -42.523438 10.894531 -43.78125 12.71875 -44.96875 C 14.539062 -46.15625 16.664062 -47.101562 19.09375 -47.8125 C 21.519531 -48.53125 24.039062 -48.835938 26.65625 -48.734375 C 29.28125 -48.628906 31.832031 -47.96875 34.3125 -46.75 C 36.789062 -45.53125 38.992188 -43.597656 40.921875 -40.953125 C 42.847656 -38.316406 44.289062 -34.753906 45.25 -30.265625 C 46.507812 -24.398438 47.3125 -19.601562 47.65625 -15.875 C 48 -12.15625 48.050781 -9.1875 47.8125 -6.96875 C 47.582031 -4.75 47.1875 -3.046875 46.625 -1.859375 C 46.070312 -0.671875 45.53125 0.289062 45 1.03125 C 44.425781 1.875 43.09375 2.546875 41 3.046875 C 38.914062 3.546875 36.445312 3.453125 33.59375 2.765625 Z M 20.4375 -18.140625 C 18.75 -17.929688 17.546875 -17.484375 16.828125 -16.796875 C 16.117188 -16.109375 15.816406 -15.34375 15.921875 -14.5 C 16.023438 -13.65625 16.472656 -12.941406 17.265625 -12.359375 C 18.066406 -11.773438 19.148438 -11.484375 20.515625 -11.484375 C 22.898438 -11.535156 24.710938 -11.679688 25.953125 -11.921875 C 27.191406 -12.160156 28.207031 -12.4375 29 -12.75 C 29.476562 -13.019531 29.71875 -13.421875 29.71875 -13.953125 L 29.71875 -16.25 C 29.71875 -16.875 29.640625 -17.21875 29.484375 -17.28125 C 28.796875 -17.644531 27.789062 -17.957031 26.46875 -18.21875 C 25.144531 -18.488281 23.132812 -18.460938 20.4375 -18.140625 Z M 20.4375 -18.140625 "/></g></g><g style="fill:#f3e8d7;fill-opacity:1;"><g transform="translate(104.456499, 248.775824)"><path style="stroke:none" d="M 32.71875 9.984375 C 31.5625 9.609375 30.5625 9 29.71875 8.15625 C 28.875 7.3125 28.289062 6.175781 27.96875 4.75 C 27.757812 3.800781 27.691406 2.796875 27.765625 1.734375 C 27.847656 0.679688 27.863281 -0.367188 27.8125 -1.421875 C 27.757812 -3.535156 27.691406 -5.53125 27.609375 -7.40625 C 27.535156 -9.28125 27.472656 -11.0625 27.421875 -12.75 C 26.304688 -12.539062 24.796875 -12.394531 22.890625 -12.3125 C 20.992188 -12.238281 18.945312 -12.359375 16.75 -12.671875 C 14.5625 -12.992188 12.4375 -13.628906 10.375 -14.578125 C 8.320312 -15.523438 6.582031 -16.882812 5.15625 -18.65625 C 3.726562 -20.425781 2.851562 -22.765625 2.53125 -25.671875 C 2.007812 -31.054688 2.65625 -35.675781 4.46875 -39.53125 C 6.289062 -43.394531 9.222656 -46.101562 13.265625 -47.65625 C 17.304688 -49.21875 22.367188 -49.207031 28.453125 -47.625 C 29.453125 -49.15625 31.019531 -50.238281 33.15625 -50.875 C 35.300781 -51.507812 37.535156 -51.613281 39.859375 -51.1875 C 41.753906 -50.875 43.253906 -50.398438 44.359375 -49.765625 C 45.472656 -49.128906 46.140625 -48.125 46.359375 -46.75 C 46.566406 -45.75 46.707031 -44.269531 46.78125 -42.3125 C 46.863281 -40.351562 46.90625 -37.722656 46.90625 -34.421875 C 46.90625 -31.128906 46.851562 -26.921875 46.75 -21.796875 C 46.800781 -18.722656 46.921875 -15.640625 47.109375 -12.546875 C 47.296875 -9.460938 47.414062 -6.390625 47.46875 -3.328125 C 47.519531 -0.367188 47.488281 2.164062 47.375 4.28125 C 47.269531 6.394531 46.742188 7.847656 45.796875 8.640625 C 44.898438 9.378906 43.660156 9.90625 42.078125 10.21875 C 40.492188 10.539062 38.851562 10.671875 37.15625 10.609375 C 35.46875 10.554688 33.988281 10.347656 32.71875 9.984375 Z M 15.140625 -31.53125 C 14.921875 -30.164062 15.078125 -28.898438 15.609375 -27.734375 C 16.140625 -26.566406 17.300781 -25.71875 19.09375 -25.1875 C 20.894531 -24.664062 23.535156 -24.585938 27.015625 -24.953125 C 26.859375 -29.390625 26.78125 -32.957031 26.78125 -35.65625 C 25.351562 -35.976562 23.765625 -36.046875 22.015625 -35.859375 C 20.273438 -35.671875 18.742188 -35.234375 17.421875 -34.546875 C 16.109375 -33.859375 15.347656 -32.851562 15.140625 -31.53125 Z M 15.140625 -31.53125 "/></g></g><g style="fill:#f3e8d7;fill-opacity:1;"><g transform="translate(154.378899, 248.775824)"><path style="stroke:none" d="M 20.046875 1.109375 C 18.304688 1.109375 16.484375 0.910156 14.578125 0.515625 C 12.679688 0.117188 10.910156 -0.671875 9.265625 -1.859375 C 7.628906 -3.046875 6.335938 -4.773438 5.390625 -7.046875 C 4.222656 -9.898438 3.425781 -13.546875 3 -17.984375 C 2.582031 -22.421875 2.375 -27.226562 2.375 -32.40625 C 2.375 -35.519531 2.46875 -37.867188 2.65625 -39.453125 C 2.84375 -41.046875 3.515625 -42.367188 4.671875 -43.421875 C 5.304688 -44.003906 6.269531 -44.441406 7.5625 -44.734375 C 8.863281 -45.023438 10.289062 -45.171875 11.84375 -45.171875 C 13.40625 -45.171875 14.84375 -44.984375 16.15625 -44.609375 C 17.476562 -44.242188 18.457031 -43.691406 19.09375 -42.953125 C 19.832031 -42.210938 20.304688 -41.445312 20.515625 -40.65625 C 20.734375 -39.863281 20.828125 -38.84375 20.796875 -37.59375 C 20.773438 -36.351562 20.765625 -34.648438 20.765625 -32.484375 C 20.765625 -30.640625 20.828125 -28.832031 20.953125 -27.0625 C 21.085938 -25.289062 21.257812 -23.347656 21.46875 -21.234375 C 21.738281 -19.117188 22.203125 -17.53125 22.859375 -16.46875 C 23.515625 -15.414062 24.296875 -14.890625 25.203125 -14.890625 C 26.515625 -14.890625 27.382812 -15.335938 27.8125 -16.234375 C 28.238281 -17.140625 28.4375 -18.566406 28.40625 -20.515625 C 28.382812 -22.472656 28.375 -25.007812 28.375 -28.125 C 28.375 -31.875 28.476562 -34.671875 28.6875 -36.515625 C 28.894531 -38.367188 29.210938 -39.828125 29.640625 -40.890625 C 30.160156 -42.210938 30.972656 -43.253906 32.078125 -44.015625 C 33.191406 -44.785156 34.410156 -45.285156 35.734375 -45.515625 C 37.054688 -45.753906 38.242188 -45.71875 39.296875 -45.40625 C 41.046875 -44.875 42.445312 -44.316406 43.5 -43.734375 C 44.5625 -43.160156 45.195312 -42.160156 45.40625 -40.734375 C 45.5625 -39.671875 45.648438 -38.097656 45.671875 -36.015625 C 45.703125 -33.929688 45.703125 -31.128906 45.671875 -27.609375 C 45.648438 -24.097656 45.664062 -19.625 45.71875 -14.1875 C 45.769531 -11.75 45.832031 -9.644531 45.90625 -7.875 C 45.988281 -6.113281 45.910156 -4.609375 45.671875 -3.359375 C 45.441406 -2.117188 44.878906 -1.050781 43.984375 -0.15625 C 43.128906 0.632812 41.882812 1.203125 40.25 1.546875 C 38.613281 1.890625 36.894531 1.992188 35.09375 1.859375 C 33.300781 1.722656 31.742188 1.378906 30.421875 0.828125 C 29.109375 0.273438 28.34375 -0.472656 28.125 -1.421875 C 27.175781 -0.734375 26.34375 -0.207031 25.625 0.15625 C 24.914062 0.53125 24.148438 0.78125 23.328125 0.90625 C 22.515625 1.039062 21.421875 1.109375 20.046875 1.109375 Z M 20.046875 1.109375 "/></g></g><g clip-rule="nonzero" clip-path="url(#cf8d08482d)"><g clip-rule="nonzero" clip-path="url(#4d4f48e6a0)"><path style=" stroke:none;fill-rule:nonzero;fill:#f3e8d7;fill-opacity:1;" d="M 205.921875 129.941406 L 248.222656 129.941406 L 248.222656 180.667969 L 205.921875 180.667969 Z M 205.921875 129.941406 "/></g></g><path style=" stroke:none;fill-rule:nonzero;fill:#6e5227;fill-opacity:1;" d="M 256.988281 138.089844 C 243.335938 113.253906 207.652344 113.253906 194 138.089844 C 188.074219 148.871094 188.074219 161.933594 194 172.714844 L 225.492188 230.011719 L 256.988281 172.714844 C 262.914062 161.933594 262.914062 148.871094 256.988281 138.089844 Z M 225.492188 178.914062 C 212.773438 178.914062 202.464844 168.605469 202.464844 155.882812 C 202.464844 143.164062 212.773438 132.855469 225.492188 132.855469 C 238.210938 132.855469 248.523438 143.164062 248.523438 155.882812 C 248.523438 168.605469 238.210938 178.914062 225.492188 178.914062 Z M 225.492188 178.914062 "/><g clip-rule="nonzero" clip-path="url(#cc48bc029b)"><path style=" stroke:none;fill-rule:nonzero;fill:#6e5227;fill-opacity:1;" d="M 241.605469 243.976562 C 241.605469 244.230469 241.5 244.484375 241.292969 244.734375 C 241.089844 244.984375 240.78125 245.230469 240.378906 245.464844 C 239.972656 245.699219 239.476562 245.925781 238.890625 246.136719 C 238.300781 246.347656 237.632812 246.542969 236.886719 246.726562 C 236.136719 246.90625 235.324219 247.066406 234.445312 247.207031 C 233.5625 247.351562 232.636719 247.46875 231.660156 247.566406 C 230.679688 247.664062 229.671875 247.738281 228.636719 247.789062 C 227.597656 247.839844 226.550781 247.863281 225.492188 247.863281 C 224.433594 247.863281 223.386719 247.839844 222.351562 247.789062 C 221.3125 247.738281 220.304688 247.664062 219.328125 247.566406 C 218.351562 247.46875 217.421875 247.351562 216.542969 247.207031 C 215.664062 247.066406 214.847656 246.90625 214.101562 246.726562 C 213.351562 246.542969 212.683594 246.347656 212.097656 246.136719 C 211.507812 245.925781 211.011719 245.699219 210.609375 245.464844 C 210.203125 245.230469 209.898438 244.984375 209.691406 244.734375 C 209.484375 244.484375 209.382812 244.230469 209.382812 243.976562 C 209.382812 243.722656 209.484375 243.46875 209.691406 243.21875 C 209.898438 242.96875 210.203125 242.726562 210.609375 242.488281 C 211.011719 242.253906 211.507812 242.03125 212.097656 241.816406 C 212.683594 241.605469 213.351562 241.410156 214.101562 241.230469 C 214.847656 241.050781 215.664062 240.886719 216.542969 240.746094 C 217.421875 240.605469 218.351562 240.484375 219.328125 240.386719 C 220.304688 240.289062 221.3125 240.214844 222.351562 240.164062 C 223.386719 240.117188 224.433594 240.089844 225.492188 240.089844 C 226.550781 240.089844 227.597656 240.117188 228.636719 240.164062 C 229.671875 240.214844 230.679688 240.289062 231.660156 240.386719 C 232.636719 240.484375 233.5625 240.605469 234.445312 240.746094 C 235.324219 240.886719 236.136719 241.050781 236.886719 241.230469 C 237.632812 241.410156 238.300781 241.605469 238.890625 241.816406 C 239.476562 242.03125 239.972656 242.253906 240.378906 242.488281 C 240.78125 242.726562 241.089844 242.96875 241.292969 243.21875 C 241.5 243.46875 241.605469 243.722656 241.605469 243.976562 Z M 241.605469 243.976562 "/></g><g clip-rule="nonzero" clip-path="url(#4ac165530d)"><path style=" stroke:none;fill-rule:nonzero;fill:#6e5227;fill-opacity:1;" d="M 238.070312 163.675781 C 235.21875 163.492188 233.144531 161.441406 233.4375 159.09375 C 233.726562 156.75 236.269531 154.992188 239.117188 155.175781 C 241.96875 155.359375 244.042969 157.410156 243.75 159.757812 C 243.460938 162.105469 240.917969 163.859375 238.070312 163.675781 Z M 231.839844 151.34375 C 230.542969 149.09375 231.761719 145.960938 234.5625 144.339844 C 237.367188 142.722656 240.691406 143.234375 241.988281 145.480469 C 243.285156 147.730469 242.070312 150.863281 239.265625 152.484375 C 236.464844 154.101562 233.140625 153.589844 231.839844 151.34375 Z M 226.714844 172.890625 C 225.042969 173.070312 223.460938 172.574219 222.230469 171.621094 C 222.039062 171.527344 221.847656 171.421875 221.664062 171.304688 C 221.027344 170.902344 220.492188 170.402344 220.054688 169.839844 L 220.050781 169.84375 C 218.613281 167.984375 216.558594 166.691406 214.257812 166.199219 L 214.261719 166.195312 C 213.566406 166.042969 212.882812 165.78125 212.242188 165.378906 C 212.175781 165.335938 212.113281 165.285156 212.042969 165.238281 C 211.972656 165.195312 211.898438 165.160156 211.824219 165.117188 C 211.707031 165.042969 211.597656 164.960938 211.488281 164.878906 C 210.203125 164.167969 209.15625 163.007812 208.628906 161.511719 C 207.480469 158.265625 209.179688 154.699219 212.429688 153.550781 C 213.140625 153.296875 213.867188 153.191406 214.578125 153.199219 L 214.578125 153.195312 C 216.542969 153.214844 218.457031 152.644531 220.09375 151.585938 C 221.09375 150.414062 222.519531 149.597656 224.171875 149.421875 C 225.632812 149.261719 227.03125 149.625 228.183594 150.355469 C 228.203125 150.367188 228.226562 150.378906 228.246094 150.394531 C 228.265625 150.40625 228.285156 150.421875 228.308594 150.433594 C 229.464844 151.15625 230.394531 152.257812 230.886719 153.644531 C 231.441406 155.210938 231.324219 156.851562 230.699219 158.257812 C 230.453125 160.191406 230.769531 162.164062 231.636719 163.925781 L 231.632812 163.929688 C 231.949219 164.566406 232.164062 165.265625 232.246094 166.015625 C 232.617188 169.441406 230.140625 172.519531 226.714844 172.890625 Z M 214.035156 140.351562 C 216.179688 139.613281 218.445312 141.292969 219.09375 144.101562 C 219.742188 146.914062 218.527344 149.792969 216.382812 150.535156 C 214.234375 151.273438 211.96875 149.59375 211.320312 146.785156 C 210.671875 143.972656 211.886719 141.09375 214.035156 140.351562 Z M 221.226562 140.476562 C 222.1875 137.386719 224.976562 135.511719 227.457031 136.28125 C 229.9375 137.054688 231.164062 140.183594 230.203125 143.273438 C 229.242188 146.363281 226.449219 148.242188 223.972656 147.46875 C 221.492188 146.699219 220.261719 143.566406 221.226562 140.476562 Z M 225.484375 129.710938 C 211.425781 129.710938 200.03125 141.109375 200.03125 155.164062 C 200.03125 169.222656 211.425781 180.617188 225.484375 180.617188 C 239.539062 180.617188 250.933594 169.222656 250.933594 155.164062 C 250.933594 141.109375 239.539062 129.710938 225.484375 129.710938 "/></g><path style=" stroke:none;fill-rule:nonzero;fill:#f3e8d7;fill-opacity:1;" d="M 254.8125 138.179688 C 242.078125 115.015625 208.796875 115.015625 196.066406 138.179688 C 190.539062 148.234375 190.539062 160.417969 196.066406 170.472656 L 225.4375 223.910156 L 254.8125 170.472656 C 260.335938 160.417969 260.335938 148.234375 254.8125 138.179688 Z M 225.4375 176.253906 C 213.574219 176.253906 203.960938 166.636719 203.960938 154.777344 C 203.960938 142.914062 213.574219 133.296875 225.4375 133.296875 C 237.300781 133.296875 246.917969 142.914062 246.917969 154.777344 C 246.917969 166.636719 237.300781 176.253906 225.4375 176.253906 Z M 225.4375 176.253906 "/><g clip-rule="nonzero" clip-path="url(#54216b4228)"><path style=" stroke:none;fill-rule:nonzero;fill:#6e5227;fill-opacity:1;" d="M 104.605469 246.152344 C 104.609375 246.25 104.578125 246.332031 104.507812 246.40625 C 104.441406 246.476562 104.359375 246.511719 104.257812 246.511719 C 104.160156 246.511719 104.078125 246.476562 104.007812 246.40625 C 103.941406 246.332031 103.910156 246.25 103.914062 246.152344 C 103.914062 244.582031 103.597656 243.160156 102.976562 241.925781 C 102.46875 240.921875 101.78125 240.058594 100.917969 239.339844 C 100.136719 238.683594 99.269531 238.171875 98.320312 237.804688 L 98.320312 239.515625 C 98.320312 239.605469 98.289062 239.683594 98.226562 239.75 C 98.167969 239.816406 98.089844 239.855469 98 239.859375 L 97.0625 239.929688 C 96.554688 239.96875 96.105469 240.152344 95.714844 240.484375 C 95.328125 240.816406 95.074219 241.230469 94.957031 241.726562 L 94.847656 242.199219 C 94.777344 242.496094 94.628906 242.75 94.402344 242.960938 C 94.175781 243.167969 93.90625 243.292969 93.601562 243.335938 L 93.066406 243.414062 C 92.996094 243.425781 92.9375 243.460938 92.898438 243.515625 C 92.855469 243.574219 92.839844 243.640625 92.851562 243.710938 L 93.101562 245.296875 C 93.148438 245.605469 93.292969 245.859375 93.527344 246.0625 C 93.765625 246.265625 94.039062 246.367188 94.351562 246.363281 L 94.945312 246.363281 C 95.265625 246.367188 95.574219 246.425781 95.867188 246.550781 C 96.164062 246.671875 96.425781 246.847656 96.652344 247.074219 C 96.878906 247.300781 97.054688 247.5625 97.179688 247.859375 C 97.300781 248.15625 97.363281 248.464844 97.363281 248.785156 L 97.363281 249.75 C 97.367188 249.847656 97.335938 249.933594 97.265625 250.003906 C 97.199219 250.074219 97.113281 250.109375 97.015625 250.109375 C 96.917969 250.109375 96.835938 250.074219 96.765625 250.003906 C 96.699219 249.933594 96.664062 249.847656 96.667969 249.75 L 96.667969 248.785156 C 96.667969 248.554688 96.625 248.335938 96.539062 248.125 C 96.449219 247.914062 96.324219 247.726562 96.164062 247.566406 C 96 247.402344 95.816406 247.277344 95.605469 247.191406 C 95.394531 247.101562 95.171875 247.058594 94.945312 247.058594 L 94.351562 247.058594 C 94.121094 247.058594 93.894531 247.019531 93.671875 246.9375 C 93.453125 246.859375 93.253906 246.742188 93.078125 246.589844 C 92.898438 246.4375 92.753906 246.261719 92.640625 246.054688 C 92.527344 245.851562 92.453125 245.632812 92.417969 245.402344 L 92.167969 243.816406 C 92.125 243.554688 92.183594 243.316406 92.339844 243.105469 C 92.496094 242.890625 92.707031 242.765625 92.96875 242.726562 L 93.503906 242.648438 C 93.867188 242.597656 94.089844 242.390625 94.171875 242.035156 L 94.285156 241.566406 C 94.359375 241.25 94.480469 240.957031 94.648438 240.679688 C 94.816406 240.40625 95.023438 240.164062 95.265625 239.953125 C 95.511719 239.746094 95.785156 239.578125 96.082031 239.457031 C 96.378906 239.335938 96.691406 239.261719 97.011719 239.238281 L 97.628906 239.191406 L 97.628906 237.320312 C 97.628906 237.203125 97.671875 237.113281 97.761719 237.042969 C 97.855469 236.972656 97.953125 236.953125 98.0625 236.984375 C 98.132812 237 99.726562 237.4375 101.339844 238.789062 C 102.28125 239.570312 103.03125 240.503906 103.585938 241.597656 C 104.261719 242.933594 104.605469 244.464844 104.605469 246.152344 Z M 89.230469 237.28125 C 89.128906 237.058594 88.976562 236.878906 88.769531 236.746094 C 88.5625 236.613281 88.335938 236.550781 88.089844 236.550781 C 87.84375 236.554688 87.621094 236.625 87.414062 236.761719 C 87.210938 236.898438 87.0625 237.078125 86.964844 237.304688 C 86.925781 237.394531 86.925781 237.480469 86.964844 237.570312 C 87 237.660156 87.0625 237.722656 87.148438 237.761719 C 87.191406 237.777344 87.238281 237.789062 87.285156 237.789062 C 87.4375 237.789062 87.546875 237.71875 87.605469 237.574219 C 87.699219 237.359375 87.863281 237.246094 88.097656 237.246094 C 88.335938 237.242188 88.503906 237.347656 88.597656 237.566406 C 88.636719 237.652344 88.703125 237.714844 88.792969 237.746094 C 88.882812 237.78125 88.96875 237.78125 89.058594 237.742188 C 89.144531 237.703125 89.207031 237.636719 89.238281 237.546875 C 89.273438 237.457031 89.273438 237.371094 89.234375 237.28125 Z M 97.367188 242.21875 C 97.277344 242.015625 97.140625 241.855469 96.953125 241.738281 C 96.765625 241.617188 96.5625 241.558594 96.34375 241.5625 C 96.121094 241.5625 95.917969 241.625 95.734375 241.75 C 95.550781 241.871094 95.417969 242.035156 95.332031 242.238281 C 95.289062 242.328125 95.285156 242.417969 95.320312 242.511719 C 95.355469 242.601562 95.421875 242.667969 95.511719 242.707031 C 95.601562 242.742188 95.691406 242.742188 95.78125 242.707031 C 95.871094 242.667969 95.933594 242.601562 95.96875 242.507812 C 96.042969 242.339844 96.167969 242.257812 96.351562 242.253906 C 96.53125 242.253906 96.660156 242.335938 96.734375 242.5 C 96.773438 242.589844 96.839844 242.648438 96.929688 242.683594 C 97.019531 242.71875 97.105469 242.714844 97.195312 242.675781 C 97.28125 242.636719 97.339844 242.574219 97.375 242.484375 C 97.410156 242.394531 97.40625 242.304688 97.367188 242.21875 Z M 95.085938 235.832031 C 95.007812 235.882812 94.917969 235.902344 94.824219 235.882812 C 94.730469 235.867188 94.65625 235.816406 94.605469 235.738281 C 94.253906 235.21875 93.796875 234.820312 93.238281 234.535156 C 92.679688 234.253906 92.089844 234.125 91.464844 234.152344 L 88.023438 234.285156 C 87.769531 234.292969 87.539062 234.375 87.335938 234.527344 C 87.132812 234.679688 86.988281 234.878906 86.90625 235.121094 L 86.503906 236.335938 C 86.398438 236.652344 86.222656 236.925781 85.976562 237.148438 C 85.726562 237.375 85.441406 237.527344 85.117188 237.601562 L 84.488281 237.75 L 84.488281 237.761719 C 84.492188 238.390625 84.269531 238.929688 83.832031 239.378906 C 83.5 239.714844 83.105469 239.929688 82.644531 240.023438 L 82.726562 240.394531 C 82.777344 240.628906 82.867188 240.851562 82.996094 241.054688 C 83.125 241.261719 83.28125 241.441406 83.46875 241.589844 C 83.65625 241.742188 83.867188 241.859375 84.09375 241.941406 C 84.320312 242.019531 84.554688 242.0625 84.796875 242.0625 L 88.171875 242.0625 C 88.304688 241.816406 88.464844 241.589844 88.660156 241.386719 L 88.664062 241.382812 C 89.925781 240.007812 90.5625 238.527344 90.5625 236.96875 C 90.566406 236.875 90.601562 236.796875 90.667969 236.730469 C 90.738281 236.667969 90.816406 236.632812 90.910156 236.632812 C 91.003906 236.632812 91.085938 236.667969 91.152344 236.730469 C 91.21875 236.796875 91.253906 236.875 91.257812 236.96875 C 91.257812 238.707031 90.554688 240.351562 89.167969 241.859375 C 89.164062 241.863281 89.160156 241.867188 89.15625 241.871094 C 88.96875 242.070312 88.820312 242.296875 88.710938 242.546875 C 88.628906 242.734375 88.570312 242.925781 88.535156 243.128906 C 88.5 243.332031 88.492188 243.535156 88.507812 243.738281 C 88.523438 243.945312 88.5625 244.144531 88.628906 244.335938 C 88.695312 244.53125 88.785156 244.714844 88.898438 244.886719 C 89.007812 245.058594 89.140625 245.214844 89.289062 245.351562 C 89.441406 245.492188 89.605469 245.609375 89.785156 245.707031 C 89.964844 245.804688 90.15625 245.878906 90.355469 245.929688 C 90.554688 245.980469 90.753906 246.003906 90.960938 246.007812 C 91.054688 246.007812 91.136719 246.039062 91.207031 246.109375 C 91.273438 246.175781 91.308594 246.257812 91.308594 246.351562 C 91.308594 246.449219 91.273438 246.53125 91.207031 246.597656 C 91.136719 246.667969 91.054688 246.699219 90.960938 246.699219 C 90.585938 246.699219 90.21875 246.636719 89.867188 246.503906 L 89.867188 248.695312 C 89.867188 249.425781 90.191406 250.597656 91.105469 251.511719 C 91.175781 251.578125 91.210938 251.660156 91.210938 251.757812 C 91.214844 251.855469 91.179688 251.941406 91.109375 252.007812 C 91.042969 252.078125 90.957031 252.113281 90.859375 252.109375 C 90.761719 252.109375 90.679688 252.074219 90.613281 252.003906 C 89.242188 250.632812 89.171875 249.007812 89.171875 248.695312 L 89.171875 246.148438 C 88.90625 245.964844 88.675781 245.746094 88.472656 245.488281 C 88.273438 245.234375 88.117188 244.957031 88.003906 244.652344 C 87.890625 244.351562 87.828125 244.039062 87.808594 243.714844 C 87.792969 243.390625 87.824219 243.074219 87.90625 242.757812 L 84.800781 242.757812 C 84.476562 242.757812 84.167969 242.703125 83.863281 242.597656 C 83.5625 242.488281 83.285156 242.335938 83.035156 242.132812 C 82.785156 241.929688 82.574219 241.695312 82.40625 241.421875 C 82.238281 241.148438 82.117188 240.855469 82.046875 240.542969 L 81.886719 239.804688 C 81.886719 239.804688 81.886719 239.800781 81.886719 239.796875 L 81.601562 238.488281 C 81.558594 238.289062 81.589844 238.097656 81.699219 237.925781 C 81.808594 237.75 81.964844 237.636719 82.167969 237.589844 L 84.035156 237.144531 L 84.050781 237.144531 L 84.957031 236.925781 C 85.40625 236.824219 85.699219 236.550781 85.84375 236.113281 L 86.25 234.898438 C 86.378906 234.519531 86.601562 234.210938 86.917969 233.972656 C 87.238281 233.734375 87.597656 233.605469 87.996094 233.589844 L 91.4375 233.457031 C 92.183594 233.425781 92.886719 233.578125 93.554688 233.917969 C 94.21875 234.253906 94.761719 234.730469 95.175781 235.347656 C 95.230469 235.425781 95.25 235.515625 95.230469 235.609375 C 95.214844 235.703125 95.164062 235.777344 95.085938 235.832031 Z M 83.789062 237.917969 L 82.328125 238.265625 C 82.285156 238.273438 82.269531 238.300781 82.277344 238.339844 L 82.496094 239.347656 C 82.84375 239.277344 83.136719 239.109375 83.375 238.84375 C 83.613281 238.582031 83.75 238.273438 83.789062 237.917969 Z M 83.789062 237.917969 "/></g></g></svg>